<mxfile host="Electron" agent="Mozilla/5.0 (Macintosh; Intel Mac OS X 10_15_7) AppleWebKit/537.36 (KHTML, like Gecko) draw.io/26.1.1 Chrome/132.0.6834.210 Electron/34.3.3 Safari/537.36" version="26.1.1">
  <diagram name="Page-1" id="taL9bRrOmiRdIPmvDzjM">
    <mxGraphModel dx="2470" dy="3364" grid="1" gridSize="10" guides="1" tooltips="1" connect="1" arrows="1" fold="1" page="1" pageScale="1" pageWidth="827" pageHeight="1169" math="0" shadow="0">
      <root>
        <mxCell id="0" />
        <mxCell id="1" parent="0" />
        <mxCell id="8JLq0JfyCQMj6DjxHrRQ-4" value="" style="rounded=1;whiteSpace=wrap;html=1;" vertex="1" parent="1">
          <mxGeometry x="620" y="-660" width="640" height="460" as="geometry" />
        </mxCell>
        <mxCell id="8JLq0JfyCQMj6DjxHrRQ-42" style="edgeStyle=orthogonalEdgeStyle;rounded=0;orthogonalLoop=1;jettySize=auto;html=1;entryX=1;entryY=0.5;entryDx=0;entryDy=0;" edge="1" parent="1" source="8JLq0JfyCQMj6DjxHrRQ-36" target="8JLq0JfyCQMj6DjxHrRQ-30">
          <mxGeometry relative="1" as="geometry">
            <Array as="points">
              <mxPoint x="1165" y="-300" />
            </Array>
          </mxGeometry>
        </mxCell>
        <mxCell id="8JLq0JfyCQMj6DjxHrRQ-46" value="predictions" style="edgeLabel;html=1;align=center;verticalAlign=middle;resizable=0;points=[];" vertex="1" connectable="0" parent="8JLq0JfyCQMj6DjxHrRQ-42">
          <mxGeometry x="-0.5414" relative="1" as="geometry">
            <mxPoint y="-13" as="offset" />
          </mxGeometry>
        </mxCell>
        <mxCell id="8JLq0JfyCQMj6DjxHrRQ-36" value="" style="rounded=1;whiteSpace=wrap;html=1;" vertex="1" parent="1">
          <mxGeometry x="1090" y="-555" width="150" height="145" as="geometry" />
        </mxCell>
        <mxCell id="8JLq0JfyCQMj6DjxHrRQ-45" style="edgeStyle=orthogonalEdgeStyle;rounded=0;orthogonalLoop=1;jettySize=auto;html=1;" edge="1" parent="1" source="8JLq0JfyCQMj6DjxHrRQ-26" target="8JLq0JfyCQMj6DjxHrRQ-36">
          <mxGeometry relative="1" as="geometry" />
        </mxCell>
        <mxCell id="8JLq0JfyCQMj6DjxHrRQ-47" value="inputs" style="edgeLabel;html=1;align=center;verticalAlign=middle;resizable=0;points=[];" vertex="1" connectable="0" parent="8JLq0JfyCQMj6DjxHrRQ-45">
          <mxGeometry x="0.0897" y="5" relative="1" as="geometry">
            <mxPoint x="13" y="-5" as="offset" />
          </mxGeometry>
        </mxCell>
        <mxCell id="8JLq0JfyCQMj6DjxHrRQ-26" value="" style="rounded=1;whiteSpace=wrap;html=1;" vertex="1" parent="1">
          <mxGeometry x="1363" y="-532" width="250" height="100" as="geometry" />
        </mxCell>
        <mxCell id="8JLq0JfyCQMj6DjxHrRQ-27" value="test.csv" style="text;html=1;align=center;verticalAlign=middle;whiteSpace=wrap;rounded=0;fontSize=19;fontStyle=1" vertex="1" parent="1">
          <mxGeometry x="1443" y="-562" width="60" height="30" as="geometry" />
        </mxCell>
        <mxCell id="8JLq0JfyCQMj6DjxHrRQ-24" value="" style="rounded=1;whiteSpace=wrap;html=1;" vertex="1" parent="1">
          <mxGeometry x="50" y="-630" width="530" height="500" as="geometry" />
        </mxCell>
        <mxCell id="GROz8C5Q2CApZAzF2Zy7-3" style="edgeStyle=orthogonalEdgeStyle;rounded=0;orthogonalLoop=1;jettySize=auto;html=1;entryX=0;entryY=0.5;entryDx=0;entryDy=0;" parent="1" source="GROz8C5Q2CApZAzF2Zy7-1" target="GROz8C5Q2CApZAzF2Zy7-2" edge="1">
          <mxGeometry relative="1" as="geometry" />
        </mxCell>
        <mxCell id="GROz8C5Q2CApZAzF2Zy7-4" value="Context&lt;div&gt;+&lt;/div&gt;&lt;div&gt;Question&lt;/div&gt;" style="edgeLabel;html=1;align=center;verticalAlign=middle;resizable=0;points=[];" parent="GROz8C5Q2CApZAzF2Zy7-3" vertex="1" connectable="0">
          <mxGeometry x="-0.1315" relative="1" as="geometry">
            <mxPoint x="8" y="-1" as="offset" />
          </mxGeometry>
        </mxCell>
        <mxCell id="GROz8C5Q2CApZAzF2Zy7-1" value="" style="sketch=0;outlineConnect=0;fontColor=#232F3E;gradientColor=none;fillColor=#232F3D;strokeColor=none;dashed=0;verticalLabelPosition=bottom;verticalAlign=top;align=center;html=1;fontSize=12;fontStyle=0;aspect=fixed;pointerEvents=1;shape=mxgraph.aws4.user;" parent="1" vertex="1">
          <mxGeometry x="80" y="429" width="78" height="78" as="geometry" />
        </mxCell>
        <mxCell id="GROz8C5Q2CApZAzF2Zy7-7" value="" style="edgeStyle=orthogonalEdgeStyle;rounded=0;orthogonalLoop=1;jettySize=auto;html=1;" parent="1" source="GROz8C5Q2CApZAzF2Zy7-2" target="GROz8C5Q2CApZAzF2Zy7-6" edge="1">
          <mxGeometry relative="1" as="geometry" />
        </mxCell>
        <mxCell id="GROz8C5Q2CApZAzF2Zy7-2" value="Chainlit&lt;div&gt;Interface&lt;/div&gt;" style="whiteSpace=wrap;html=1;aspect=fixed;" parent="1" vertex="1">
          <mxGeometry x="310" y="428" width="80" height="80" as="geometry" />
        </mxCell>
        <mxCell id="GROz8C5Q2CApZAzF2Zy7-10" value="" style="edgeStyle=orthogonalEdgeStyle;rounded=0;orthogonalLoop=1;jettySize=auto;html=1;" parent="1" source="GROz8C5Q2CApZAzF2Zy7-6" target="GROz8C5Q2CApZAzF2Zy7-9" edge="1">
          <mxGeometry relative="1" as="geometry" />
        </mxCell>
        <mxCell id="GROz8C5Q2CApZAzF2Zy7-6" value="Formula&lt;div&gt;Extraction&lt;/div&gt;&lt;div&gt;LLM&lt;/div&gt;" style="whiteSpace=wrap;html=1;aspect=fixed;" parent="1" vertex="1">
          <mxGeometry x="470" y="428" width="80" height="80" as="geometry" />
        </mxCell>
        <mxCell id="GROz8C5Q2CApZAzF2Zy7-16" style="edgeStyle=orthogonalEdgeStyle;rounded=0;orthogonalLoop=1;jettySize=auto;html=1;entryX=0;entryY=0.5;entryDx=0;entryDy=0;" parent="1" source="GROz8C5Q2CApZAzF2Zy7-9" target="GROz8C5Q2CApZAzF2Zy7-11" edge="1">
          <mxGeometry relative="1" as="geometry" />
        </mxCell>
        <mxCell id="GROz8C5Q2CApZAzF2Zy7-17" style="edgeStyle=orthogonalEdgeStyle;rounded=0;orthogonalLoop=1;jettySize=auto;html=1;entryX=0.5;entryY=1;entryDx=0;entryDy=0;" parent="1" source="GROz8C5Q2CApZAzF2Zy7-9" target="GROz8C5Q2CApZAzF2Zy7-2" edge="1">
          <mxGeometry relative="1" as="geometry">
            <Array as="points">
              <mxPoint x="670" y="600" />
              <mxPoint x="350" y="600" />
            </Array>
          </mxGeometry>
        </mxCell>
        <mxCell id="GROz8C5Q2CApZAzF2Zy7-9" value="Plan &amp;amp; Execute&lt;br&gt;&lt;div&gt;Agent&lt;/div&gt;" style="whiteSpace=wrap;html=1;aspect=fixed;" parent="1" vertex="1">
          <mxGeometry x="630" y="428" width="80" height="80" as="geometry" />
        </mxCell>
        <mxCell id="GROz8C5Q2CApZAzF2Zy7-11" value="MCP" style="rounded=0;whiteSpace=wrap;html=1;" parent="1" vertex="1">
          <mxGeometry x="780" y="303" width="50" height="330" as="geometry" />
        </mxCell>
        <mxCell id="GROz8C5Q2CApZAzF2Zy7-12" value="Addition&lt;div&gt;Tool&lt;/div&gt;" style="rounded=0;whiteSpace=wrap;html=1;" parent="1" vertex="1">
          <mxGeometry x="830" y="303" width="120" height="60" as="geometry" />
        </mxCell>
        <mxCell id="GROz8C5Q2CApZAzF2Zy7-13" value="Division&lt;div&gt;Tool&lt;/div&gt;" style="rounded=0;whiteSpace=wrap;html=1;" parent="1" vertex="1">
          <mxGeometry x="830" y="393" width="120" height="60" as="geometry" />
        </mxCell>
        <mxCell id="GROz8C5Q2CApZAzF2Zy7-14" value="Subtraction&lt;br&gt;&lt;div&gt;Tool&lt;/div&gt;" style="rounded=0;whiteSpace=wrap;html=1;" parent="1" vertex="1">
          <mxGeometry x="830" y="483" width="120" height="60" as="geometry" />
        </mxCell>
        <mxCell id="GROz8C5Q2CApZAzF2Zy7-15" value="Multiplication&lt;br&gt;&lt;div&gt;Tool&lt;/div&gt;" style="rounded=0;whiteSpace=wrap;html=1;" parent="1" vertex="1">
          <mxGeometry x="830" y="573" width="120" height="60" as="geometry" />
        </mxCell>
        <mxCell id="8JLq0JfyCQMj6DjxHrRQ-7" style="edgeStyle=orthogonalEdgeStyle;rounded=0;orthogonalLoop=1;jettySize=auto;html=1;entryX=0;entryY=0.5;entryDx=0;entryDy=0;" edge="1" parent="1" source="8JLq0JfyCQMj6DjxHrRQ-1" target="8JLq0JfyCQMj6DjxHrRQ-6">
          <mxGeometry relative="1" as="geometry">
            <Array as="points">
              <mxPoint x="560" y="-540" />
              <mxPoint x="560" y="-480" />
            </Array>
          </mxGeometry>
        </mxCell>
        <mxCell id="8JLq0JfyCQMj6DjxHrRQ-1" value="&lt;b&gt;&lt;u&gt;table_questions&lt;/u&gt;&lt;/b&gt;&lt;div&gt;&lt;br&gt;&lt;div&gt;Context: [[&#39;&#39;, &#39;row1col2&#39;, &#39;row1col3&#39;, &#39;row1col4&#39;],&amp;nbsp;&lt;span style=&quot;background-color: transparent; color: light-dark(rgb(0, 0, 0), rgb(255, 255, 255));&quot;&gt;[&#39;row2col1&#39;, &#39;row2col2&#39;, &#39;row2col3&#39;, &#39;row2col4&#39;]&lt;/span&gt;&lt;span style=&quot;background-color: transparent; color: light-dark(rgb(0, 0, 0), rgb(255, 255, 255));&quot;&gt;]&lt;/span&gt;&lt;/div&gt;&lt;div&gt;&lt;br&gt;&lt;/div&gt;&lt;div&gt;Question: what percentage of total revisions were not related to prices?\n&lt;/div&gt;&lt;/div&gt;" style="text;html=1;align=left;verticalAlign=middle;whiteSpace=wrap;rounded=0;strokeColor=default;" vertex="1" parent="1">
          <mxGeometry x="80" y="-590" width="400" height="100" as="geometry" />
        </mxCell>
        <mxCell id="8JLq0JfyCQMj6DjxHrRQ-8" style="edgeStyle=orthogonalEdgeStyle;rounded=0;orthogonalLoop=1;jettySize=auto;html=1;entryX=0;entryY=0.5;entryDx=0;entryDy=0;" edge="1" parent="1" source="8JLq0JfyCQMj6DjxHrRQ-2" target="8JLq0JfyCQMj6DjxHrRQ-6">
          <mxGeometry relative="1" as="geometry" />
        </mxCell>
        <mxCell id="8JLq0JfyCQMj6DjxHrRQ-2" value="&lt;b&gt;&lt;u&gt;pre_text_table_post_text_questions&lt;/u&gt;&lt;/b&gt;&lt;div&gt;&lt;b&gt;&lt;u&gt;&lt;br&gt;&lt;/u&gt;&lt;/b&gt;&lt;div&gt;Context: this is a pre-text&lt;span style=&quot;background-color: transparent; color: light-dark(rgb(0, 0, 0), rgb(255, 255, 255));&quot;&gt;&amp;nbsp;&lt;/span&gt;[[&#39;&#39;, &#39;row1col2&#39;, &#39;row1col3&#39;, &#39;row1col4&#39;],&amp;nbsp;&lt;span style=&quot;color: light-dark(rgb(0, 0, 0), rgb(255, 255, 255)); background-color: transparent;&quot;&gt;[&#39;row2col1&#39;, &#39;row2col2&#39;, &#39;row2col3&#39;, &#39;row2col4&#39;]&lt;/span&gt;&lt;span style=&quot;color: light-dark(rgb(0, 0, 0), rgb(255, 255, 255)); background-color: transparent;&quot;&gt;]&lt;/span&gt;&lt;span style=&quot;background-color: transparent; color: light-dark(rgb(0, 0, 0), rgb(255, 255, 255));&quot;&gt;&amp;nbsp;this is a post-text&amp;nbsp;&lt;/span&gt;&lt;/div&gt;&lt;div&gt;&lt;span style=&quot;background-color: transparent; color: light-dark(rgb(0, 0, 0), rgb(255, 255, 255));&quot;&gt;&lt;br&gt;&lt;/span&gt;&lt;/div&gt;&lt;div&gt;&lt;span style=&quot;background-color: transparent; color: light-dark(rgb(0, 0, 0), rgb(255, 255, 255));&quot;&gt;Question: what percentage of total revisions were not related to prices?\n&lt;/span&gt;&lt;/div&gt;&lt;/div&gt;" style="text;html=1;align=left;verticalAlign=middle;whiteSpace=wrap;rounded=0;strokeColor=default;" vertex="1" parent="1">
          <mxGeometry x="80" y="-450" width="320" height="140" as="geometry" />
        </mxCell>
        <mxCell id="8JLq0JfyCQMj6DjxHrRQ-9" style="edgeStyle=orthogonalEdgeStyle;rounded=0;orthogonalLoop=1;jettySize=auto;html=1;entryX=0;entryY=0.5;entryDx=0;entryDy=0;" edge="1" parent="1" source="8JLq0JfyCQMj6DjxHrRQ-3" target="8JLq0JfyCQMj6DjxHrRQ-6">
          <mxGeometry relative="1" as="geometry">
            <Array as="points">
              <mxPoint x="560" y="-215" />
              <mxPoint x="560" y="-480" />
            </Array>
          </mxGeometry>
        </mxCell>
        <mxCell id="8JLq0JfyCQMj6DjxHrRQ-3" value="&lt;b&gt;&lt;u&gt;markdown_table_questions&lt;/u&gt;&lt;/b&gt;&lt;div&gt;&lt;b&gt;&lt;u&gt;&lt;br&gt;&lt;/u&gt;&lt;/b&gt;&lt;div&gt;Context: &amp;lt;table class=&#39;wikitable&#39;&amp;gt;&amp;lt;tr&amp;gt;&amp;lt;td&amp;gt;1&amp;lt;/td&amp;gt;&amp;lt;td&amp;gt;&amp;lt;/td&amp;gt;&amp;lt;td&amp;gt;u.s .&amp;lt;/td&amp;gt;&amp;lt;td&amp;gt;canada&amp;lt;/td&amp;gt;&amp;lt;td&amp;gt;total&amp;lt;/td&amp;gt;&amp;lt;/tr&amp;gt;&amp;lt;/table&amp;gt;\n&lt;/div&gt;&lt;div&gt;&lt;br&gt;&lt;/div&gt;&lt;div&gt;Question: what percentage of total revisions were not related to prices?&lt;/div&gt;&lt;/div&gt;" style="text;html=1;align=left;verticalAlign=middle;whiteSpace=wrap;rounded=0;strokeColor=default;" vertex="1" parent="1">
          <mxGeometry x="80" y="-270" width="400" height="110" as="geometry" />
        </mxCell>
        <mxCell id="8JLq0JfyCQMj6DjxHrRQ-5" value="" style="shape=image;verticalLabelPosition=bottom;labelBackgroundColor=default;verticalAlign=top;aspect=fixed;imageAspect=0;image=data:image/png,iVBORw0KGgoAAAANSUhEUgAAAhAAAADMCAYAAAAiY5r0AAAACXBIWXMAAAsTAAALEwEAmpwYAAAgAElEQVR4nO3dT3Ic15Uu8O9kJigOuu3ik/kiPCCZWIGKE9t8PUBSWoCgFRCM6IlDgkisAMAKihSIp4kjAK5A1AJkFgYvGJZfNOEVZFJwByPabakUHjSbqMzTg6oCQaAAVOU9+Q/5/SLUbkqom7cAsPLkueeeCxARERERERERERERERERERERERERERERERERERERERERERERERERERERERERERERERHZkKonQEQl+joO3/vzGwywtjioZjJE1GQMIIgum+1/7yJNu+LJRyoaQqULRUdEO+e9TCEJoAMAA4Hsa6avILKP1Rv9UuZNRI3CAIKo6XpxB76/LL4saYbliwKFeanKAKL70HQTq4t9y7GJqLmCqidARDltHUQi+FQVKyLagSqkgEeCcUASKfDYfnQiaioGEERNs3UQQXRdoBGAQoKGqYbYL+lKRNQADCCImqIXhwj8nogul31pBfaxtpiUfV0iqi+v6gkQ0Qy2//oAQfBSBKUHDwAA1b1KrktEtcUMBFGd9eIOAn9HNFuutuQ561d5dSKqHwYQRHXVi0MsBM8FGlY9FQzRr3oKRFQvXMIgqqNe3K1L8DCuf2CzKSJ6DzMQRHXTi7sIgucC234OubH+gYimYABBVCejZYtvahM8AACyZ1XPgIjqh0sYRHVRp5qH49j/gYimYABBVBcL/k7dggcF+qx/IKJpGEAQ1cH2wboAUdXTOIX1D0R0BgYQRFXrxaGoblQ9jenY/4GIpmMRJVHVFoLngJZ2uaPTNUUSZNkrqAyAdLxM4Xcg2oV4SwINefomEZ2FAQRRlb6KV8qoe1CgjwzfYiF9ht/PdqaFfh2Hxc6KiJqs0ua4RK335CAuMoBQoA9NN5lJICJrzEAQVaXA7INCEujwPgMHIioKiyiJquIF60UMq6qPcTi8zeCBiIrEDARRFQrKPqjqJlZvbViPS0R0EjMQRFXw/HvWQzJ4IKIysYiSqGy9OJQFP7YcUlUfY/XWQ8sxiYjOwwwEUdl8246TCkkwzDYsxyQiuggDCKKyWS9fHA7v8rwKIiobAwiiMvXijuWZFwrZxdpsjaGIiCwxgCAqUxBEpuMdDjdNxyMimhEDCKJSZZHVSMw+EFGVGEAQlUnkI7OxmH0gogoxgCAqkVX9gwJ9Zh+IqEoMIIjKsh13zcbK8NRsLCKiHBhAEJVF/chsrDTtm41FRJQDAwiikghs6h+4fEFEdcDDtIhKokDXpHe86l8shinU1kHkPMbqjb7zGERUGAYQRGXoxR2BGtVAZM9sxilILw5F9LnLEArsA7htNCMiKgADCCpTD4DrTXQFwCv3qZQsCLqA2ow1xL7NQAUxea9S7/dIRAwgqFRdGLZxbhSxyT4oJKn/uRdZ5HzQb6Z7JlMhosKwiJKoDIolm4Gy+tc/WDTL8lNmIIhqjgEEURlEQpNxtObLF3BvlqWQAT5frP37JGo7BhBERbMtoOzbjFMQk2ZZyuCBqAEYQBAVLQjsOlDWvYDSolmWsv6BqAkYQBAVzuYETgX2a19AaVLrUfMsCxEBYABBVAKrEzi1/ttXLWo96p5lISIADCCIiicSGQ3UtxmnIAa1Ho3IshARAAYQRMXqxaFAOyZjac23NprUejQgy0JEABhAEBWrTQWUJrUeNc+yENERBhBEhWpRAaWIewFl3bMsRHSEAQRRkSy6MgJoRmpf3LMtq4t993kQURkYQBAVyuCmOhqnbzNOQbbjrmuthwJ9o9kQUQkYQBAVxeCmeqTuqf3U+ZRVQLX+53wQ0REGEERFyYLQbKy6F1CKZ5BpYQMpoiZhAEFUmDYVUHruBZR1D5KI6D1B1RMgqpJsxY/gBb8sYmxVRIAajCShbB/sGAx0Lk11D1/e3J37hSYNpCTB2mLiMgYRlYsBBLWb+A+gFjf5KUObjaMdKFaMhjtPvkOsgqDrHihlrH8gahguYVB79eKw6inUSpr2c71OLI4qr/kuEyI6hQEEtVdgWOTYcE5LCBYncNZ9lwkRncIAgtpLh2HVU6iRfu5XikGvCxZQEjUOAwhqL/HCqqdQGzr8NtfrRoeFhU6XbsIuEyI6hQEEtZhVm+lLYJgzA2FyWJgw+0DUQAwgqL0ENl0iG84tA2DQ6yLTfLs/iKhSDCCoxazOqWg4dbiBWxwW5rOAkqiJGEBQa5mdU9F42bO8rxQgcrmyQgb4fJEBBFEDMYCgdtqOmX2YyLsDwuR7qAweiBqKAQS1UxYw+4DxEdp56x/Uj9wnwPoHoqZiAEHtZNI98RJwuYFbNJDiCZxEjcUAgtpJ3XoXXB4ON3CR0PnybCBF1Fg8TIvaSbN99YJd+3GxbFGcqZAE4tAdclZfLOa7hskJnGwgRdRkbQ8gwhN/Hoz/qavwxJ/rPt/6+nJxF8Cu+bhPDroALJZH+vj8xn2DcYphcgKnvjKZS0mWXrwOkfkdeDIlQBwmuPpmsHebARG1R1sCiA5G282WMLoJd3H6ZjwxAJCM/9nD6IyAstOsEUZz/Ajv5nreU+0+RvM+Pl9+kFXA9an8Ha358dZZ5H5geT1P4Fx6GXfw5p+6vnpd8WVJBV2ZLHmdueh7BXh7BZ98//cBIPsC7Ktme8Mr/+gzqKDLqooAInR8fTLj13UALAO4h/n2qncwuml3x6+fXLMPYHOO688rAvApgBWcHyxMM7lpRQDWx///MwDfooinbJpu6yByfyofq/vplCKX6gTOUdDwi+XAl3s41C68yd9BhczzI1V0AI0UiAB5GLz9BT75/se+DvXbVN4+27vz66SA6bv52uhY+zcYVLIk1YtHP6umLod9HYf4fc6TcKfZOoggun7u11xdWMG//vqVbB/sqGqIw/SzU9+/Xhxiwd8BZB9f3FibNkzZAUQIIDYY47zUZwfAAwAPMf+N+Lxrroz/2YVtIBFhdNOPjMabWB7/s47RfHeNx6eTLHd2rOasTSiNuC9h1OA9Lr34W7Tg+5/qoa7AQwdqFAAepxqJjyjAld4n3//YH6b6dO/Oh7v2F8pHUt/1MxkAoAtYA/DIYqy5LAQvBRriyQ/nfplCknO/4GoQ4V9/Xe6yWi8OJfXjC+euMoCclVXWBF/cvHv0R284QOa9210l3gNAE6i+OzDvH29+Ho2LSIBQfX8ZJ+8RPiIBIj3n7/llW8J4AGADdoHDNCuwCSQiFBM4nBQC2AEDicIJ5COLDISWv2Q2n+24K+pWKKoux4cbWHrxtyjw/XWoRlpE0HAW1SjwEH38/Y/raaqbdQgkFJK4nqg6GqiCzq5fxSuzzv2ir9P/fnMN5z+cmpOFYH2WzwwR7eCM+5pm2HzvX4w6u777DHlycA8i+/ji5sbU1wP78HAPJ+8Nnn9vFHSdPb/Lso0zBPAco+i3rF/ilfE18zx19savjQznc5EQo0Cih/K+R62iNsWTqP3plKnB+9RqajyWXsadj//0407gec+hGlUxBwAQ1TDwsPPx9z/GSy/+vlLVPMZsUv+ed8tknLmuGZyfqp9H6pfbG6YXh4CuuAyhkARf3tx1GUNE9gWIjpaCxnMTIIJm357z0ksRQCwDeIlyb8YT4fjaD2f8+g5GgcOsX1+EhxjNOaxwDpdSawooxTN4n+U3kPr4+58eBIe/iMXxQ9vSsUBiZ+nF67CSSWhm8/um2TWTcWY1R/ZhJiU3lxtlHxxlunnxF51PU91TSIIFf+XoXwbeikJ2ccHDZtMDiAcAvkH1T9Q9XBwUhKgu0DkpxCiQCaudxiWydRCZjVWj4sKpxHMvoCyxgdTSi9fhJ9//+Fw0ezQqcqwfUV0J/A92Krq8UfGh/NJmnBn04tA0+wAAnlfu/GuQfXg3WPYUoyL+EfHuQYdPL3pZkwOIB6iiYOdsPYx2fEwTon437BD1m1NztaWA0qSBlCRYM6w6P8fS//uPru9/UOlyxWzk2XBBPqvm0hcUF84+TmgyziyuBPdMsw8AoOVlIGQheOA8iEH24cgweyRAhD+8vnX0MDTD51BTA4gu6hU8TDzC6RtyB6Msycl/XwchRkFELZ/KmmRUQOmu6uLCCwWBxfJFKUs0n/z/n+4Fgf9Saty2XAUDRbb23W//12d7t69Vsw1RjQKIsvTiUFQ37AeW0H7MKXpxqO9aBORimn0AgLXFgQJ9/Nfb+yK4hxk/h5oYQCxidEOuow5GhYrHrcOsuK4QId71jqCczAooKyounJlJpqX4BlIf//mndaTZbtHXcZGJJOmhd/ePv71e7cPQcGiynFRWoGZSOzBtXGgHf3hdfCGoRfbEMvvwzrcQWVIgggwfz/KCJgYQ66jn0/xEhHf1ECuotmByVg9Rj9qMxjIroNSa78CwOIGz4BqPj//807pk2UaR13CVqT7OFuT23r9cq8PP2y7zcbySvwgGtQPnGm3lLJZixe3lxtmHicN0d9zfZTDeCnqhJgYQUdUTmMEk69CkJ/sdcCkjH8sCSr/uBZTiHigVWEBZ9+BhsmTx/He/eljZksVJa4sDhdjM5Z+vFlqIWFT24UjRWzktdo4Uk30YdfLU7DE0nXn8y9ZIqi4m2zWbdEMOMcpEbFQ7jQayLKCcMfKvRC8OXT/8ijyB85M//ecyah08yH6aymd7dz5Mqp7LFANYfF7915tFFNWMadQqfqWQsSeK3srpzdY46iyj7MON3TlflSDTn8/8b5K++/u4emvjxBcMIDgzKGQAUZwmBQ8Tk50t9XgyagjDDpR999kUyOQEzmKWaJZevA4hsmN1FMlJKpIAWV9TfZXBSwJPB4B3D9CZiuEy1cfZFW9j7zc5sw7bf30AaAef3yjm6VN1H2KyNFzc555or7CxJ4rcyllV9uF4m+t5/hsArN46dwmeAQQd18GobqOOO1xqS4Gu67mUo4FqXkBpcQJnpnsXf9F8ll7GHf/wg+fmrZQFfR3izEOwPvn+xwcXBSwqGIjq/ee/+9WzXHPoxR0E/o5otgwAuhX/BauL+cY6l/7sfroqAPWLCSC+ilekjGL0IrdyVpJ9KNZlDiD6GB1vPekLPsC7NF2I94/4jiqY3zQJRido9nH2nLsYNfyICprDp2AAMZfWFFCKwVbVAmo8/MPOumgWWo2nIruSpk+/u3O97zSQoJ+m3v29O9eSXK/fOogg2HnvqVWCHfTiffM+GiL7OLuPzey8gjIQjjff2UlYyLB1rn1wcBkDiF0Aj3H2gUSDY/+tP/7fEKO1f/e/QPn0MTroqn/Gfz8550m/iQ3YzznCKFDhMsYsLI/wrnkBpTgGrQqZubp7Vkt/+s9l0cxmp5OgjzTb/KNr4AAgy7LN53eub+QeYPuvD0SzU4G8QDu64O8AOD/1PK8sHcDz3ccpYiundcvqcwi0o394fcv8VE6L7EM67NtNyEYTd2GcZR/AbQD3Mf9phglGqftF2B3TPYsBRh8EdzH/+neC4ubs1OSkVdpSQLkdG7xPtc8+iOe8Ln7UzOk3H951zTpkIgmy7G7u4KEXh3jyw/NpwcOEABG24ijnFKfzjXbGFFFDYN2y+iLWWzktAiDNnpbVvXUelyWAeIrRTdj1L0FiNM6s17oN98K5yTiWc3bf698SrelAqX7kPoZt/cPHf/5p3bV5kUszJz15roagny3I7dxByNZBhCB4OVOmZ7SUYbdc8NYo42h9oNb2wXpZ2Ycj1ls5Pd8pS6yQBMN6NkW7DAHEU4yexK1S7glGQURiNF4Z15hkMqyCiMhonEuvNR0oLRpIGZ7AufTidQh129KXiSRZKndzN3M6FkBMMhh5ezvIk4OeiD4Xma0QVKAhAs+uSZ3Z063hgVq9OHRtupSLZVZx6yByXfqra/YBaH4AkaCYTo8DjJZCipCgmABlAMDqMJ4QzdyGWroWFVCGzmMYNpDyg6v3XLIPR8FD3gLHY+MMh97t3O2oe3GIJwcvAZ3/c0y8B5ZZCIXBmRiGB2rJQlB+9gGwXYYRdVp+qXP2AWh+AHEXxRX79THKbljbRHHZjWQ8voXQaJzLqy0dKE1O4DRuIOWQfbAKHpClFu2oczdwEmgHC/6Kw7VP0MR9CKMHj6JbVp/HaitnLw4vc/YBaHYAsYviCx53jcfrFzDmSVZbMIvfc910RqnOInYnmDI5gVPNqtqXXvx9xSX74Gm25hw8APjj/7n+yLkd9driAIfDuw6tpD91uv5x6v4zEtj04nBpWa3OS7kSur1+PIpj2+26Zx+AZgcQZeyJ7cO2uK2MOQ9gM2cuYVzAqoCyiN0JtrLIfQy7EzgDX3IXpWWqj7/7bc6mTkVZW0zy7vE33pGRmIzieqKla/ZB0vsuZ3uYnMppkUGpefYBaG4A0Ud52y2tKscTlFdp/63BGAwgLtCaAkqR2pzAOS6ejPK8NhNJsg/8DYt5mPvy5qP8O3E8m23XmiUm47ga9bnIRSG7o2yeY1DuuJWzDdkHoLkBRBG1CWfpG41jcVOfVb/Ea7WWWQGl4e6EYhicwLm62HefBwBcifK+Mkt1szYnYE4j6Vqu13mezTKGBDbfm9GBWvmMWlZHuV9/OBxlclyXY1y2crYk+wA0N4AoM+WbGI1TZto0KfFa7WRZQOnV+Oe1HXdd17Ute1zkXb7IRJK9Ox/uWs2jEJ8v7qvO/zkhqqFzyh0AhkOrz9X8vy8OTaMUsnt00xXHXU0O9U1tyT4AzQwgjrd1LkNiNE6Zcx6AQUSx2lJAmRos01gu0eRdvkjrd47AdOnjXC97c2ixhduomVTOA7VcOzZOsg8AoI5bUvNu5WxR9gFoZgBRxYdtYvD6+qZOaW5tKaAUL6hNA6lPXvwtyv9qz2QOhVtd7OfK2FgcdLa2OHApPnw3l5xBgFX2AXDPpuTcymmQfRg0JfsANDOAaKKkJddsjbYUUJq8T6MGUqo55yLoW2zbLE2+lt+R0dUTgzHmz0BYZh8AYG0xcQuGZP652PSueNaU7APQzAAiqXoCRK0ooDRpICWJ1QeiehLmep1mZRYwG5j/d8L1TJAjatBMat70fy8OnbIPqptn/I5N+3czybWV80rgfjLyyUCo5poYQBBVqy0FlCYNpDKzDIvnebnS9OlQ+1ZzKMXqYj/X07NFIaVFw695D9S6EtzLm304t+BQHX/35tnKaXBux6llmAZgAEE0r7YUUJq8T7sGUqdOv5zR3r/87/p+j8+WzP0Kl+2TE2JwHsY8B2r14lBUN3JfKjsz++C+E2OerZw+IudzOxqWfQAYQBDNrS0FlCYncBo1kAKQqzhPTW6IFcjz9Kx+6HzdLDUoopSZ5+HWsloSfHlz9+wvcPzZzxNAOyzBAM3MPgAMIIjm1pYCSohBAynDEzglRwZCLA6IqkZSyVV9g5/XrD8n16LDi9p/u+7EmLWWw7UAFGhk9gFgAEE0t5YUUIauH4rmJ3BS8d66bzeftfFYodkHAM5P9LNu5Wxp9gFgAEE0HxZQzsFxDZrK57z9ceyigs6tg6jQ7MOYwmUZQ8ILv6TF2QeAAQTRfNpSQGlxAmeWq58BVa/4rJHA5cCsi7MPR1+c5f4dnGkrZ4uzDwADCKK5tKaA0qKzoW9YQAlAZf4bm6o09VTZ6uatBr+b5+0IcX1q1+E8h44lua8DnL+Vs+XZB4ABBNFc2lJA6XQiIgrKsGTzp9Ylb1vlquUJ4CRNbC6uP7sPcc6OEKeW1ehjdXH2A8dcjyg/bytny7MPAAMIorm0ooDSpM6jgAxLjgwEFJ2P/+0ngwZLZcuROfHMlh4So3FOc25Znd6f6+tdd5WctWS5dbDc9uwDwACCaHZtKaC0qPPId57DudIsX2dBeZPetp5LofK2ELfK+Lg+tQPTe3b04o7pgVmzeOv49+ysrZyiD1yGvQzZB4ABBNHs2lJAadFAqoAMi59zbT7zzA6aKkcQRPO+RC1PKZYgMRjldAblSvDA9MCsWYxOGE1yX3PaVs6tg8h1ie8yZB8ABhBEM2tRAWXoPIZhA6kJ8fPdCDxP3A85KpEIPp3/VQZnWEwMh4nzGCef3B3PinB6YncqCpVwyoDMPowxgCCaUSsKKE1O4CymgdTwit/P9UJFZ+nF3yLTyRSlF3cUWJ7/hXZnjpjc3E4cqCULwXrp2Yd3k8kdXJ3aytmLQ5E8P59jLkn2AWAAQTSzVhRQmjSQMnwaPmbv9rWB5mxOFfi+U8V8aXwsz9rJ8T2S9i2n4daACQDkvZuuS9Mo5yd2zdyyYce2crp0zwQuV/YBYABBNJu2FFBaNJCyfBo+QfM2BlKNll68Dm1nU4AcRYYKSQqoqXHLIMm7XSTOLatdn9hdd2JMtnK6nt0BXKrsA8AAgmg2bSmgFHEvoDR+Gj7OU529B8AJgf9B7u6Hpci/xbFvPJN8p4G+9/pxEaXrTVezp85P7K47McZ/95l9OI0BBNEMWlNACYMTOAsMkL67c72fpyMlgHEWoqa1EL04zL3FUYdPjWcDOGYgjpZhFny3ltXDbNdlHgDcd2J43i+ZfZiOAQTRDFpRQLkdd3Otvx+jRTwNnyBp9jjva33f31l6+VPt2lvnLTJUSILVxb79hFxrIABsvdpw2u6Y6abdE7vDse6qXWYfpmMAQTSDVhRQpgZBUgkB0vBq8Cjva0U19P473TCZSC/uoBe7ByPbB+u5n25nPJVybmoQQMDLvd1xrgOzZhrQ5fdSQmYfpmMAQXQRywLKAvojWBEvqGUDqZP2bl8bQPIVamZZtvn8d7966DyJrYMIC8FL/PPV6Z0KZx4nXhbVjTwvVcgAaUH1Jp57LwgRh2yWdWDkkFFxz8pdzuwDwACC6GKWBZQ1/iAxWaYpK0BK07luMJlIgiy7+/zO9Q3na28frIvoc+ezEHpxFwhcCjufFfb75Fp46MA8+wAYZVRyuqTZB4ABBNGFWlFAadJASpKyAqTv7lzvz5yFEPSzBbn93Z3rs339WXpxiCc/PH8vY/CPN7lOrvT+77/fQxA8z/uUbrK98TyjwkPzZmAzKWJZZjis5O/eZc4+AAwgiC5kWEBpfsCUGZMGUo5b/+Y0TOXCkxkV2dp3v/nw7t7ta243w62DCEHw8lRRYJ6Om9sH65qlu04pfujjEm5MpQcQhWQfAGBtMakkILrE2QeAAQTRhQwLKOubgTBZpimugdQ0e3euJciyqR/QmUgyHHq3//jb67kLLifkyUFPRHNnC45My2DkoJAEX9x0fl8XX6iCjJkO5zuuez5JgWOfctmzDwAQVD0BolrbOogAtRmrxgWUUCxBXMdIS39/w6vBI+9Q73l6rB4h06fZVe/h3m8csw69OMRC8A1cA8he3MGV4AEyPHQtyAMAHA7vOo8xE/0Zzr8Uc1xN8AxfFLAl9egC2V8gBn1OZnXJsw8AMxBE52tJAaXJB2sFAdLe7WsDL03vA4AKBops7bs7v1pxXrLY/uuD0ZKFw89/6yCSJwc9BEEsqhvOGQwAqpa9ES4g+c4dye1tulbo+CW+nzZkHwBmIIjONSqgtMhA1LqAMnTdUVDUCZyz+O7O9f7Si7/fB7z+3p0PE6fBenFHFoJ1aPbwoodvPbk18Os4xDDoimBJgeXJ91SMHuIV6GP11obNaDPI0gE8v5RLlXLDVUkgRtnEi7Qg+wAwgCA6lwJdk8//2hdQOn6wVvz+9u58uOs8SC/ujpcswpm+XtHBkx9eAtKBoiOpdiY3KOvE/3jXRZH1Aaf52LdavbtQGTfc4XAfC8UHRG3JPgBcwiA6VysKKC1O4NSS093WRksWc/V2EGhHgK5AQ4vlibOMg4e7pd+U3pazC6O0G25ZOzFakn0AGEAQna0lHSghBn0u/PILKE304g62fvhGNHtUZBCQl6oMcDj8rJIn2rKuWe4NNyly8DZlHwAGEERna0kBpdOBR2jAEeVnGbejFsFy1VOZZnQa5fAu1qr73jqdYjnL+FpKP4tjFyy4V0mLsg8AAwiiM7WiA6VJlqXG7+8sVu2oC3Js2aLi763DKZYXjTw6rrv4fhbvS4oauG3ZB4BFlERnakUBpUWWpc7v76ReHGLB3xHVqOqpnEWBPg6H92txM1J9ZbaN5NTY2dPS36NmCaSgQsqWZR8ABhBEZ2rFEd4WDaTq/P6OG2VbvjFp5lQQVX2M1Vvup4XaSYoYVCEJVm9uFDH2uQraWdLG7APAAIJourZ0oBQJnd9nnd/fRC/uANmKiNQyeFBIAh3ex2qBnRjzKOqJvYgDs2bxFgkWChhXho8LGLX2WANBNI1dAWVSVYOlC5mcwFldA6m5rC0OsHprRbP0ftGFgfNQlYGqbuJweLt2wQMASGD+sy3swKxZjE4ZTSyHVKDfyCJiAwwgiKawK6As94TKuZicwKmv3Mco0ZeLu/jixmLVgcRR4DAcLmL11kZtg7AijsGuKvswYX1ImKatq32Y4BIG0RR2BZR1Tu9nkXvPxHJP4DTz5eIugF39Kl6BF6yXtRtDVQZA9hjD9FFtg4b3mc5xlH24sWs5Zo5ZvLLqFTpqL17DzFFJGEAQTdGKAkqRJfcx0r77RCo0CSS24y4y7yHEW7IOJlRlAA/PkA2fNu5ms7Y40CcHA7PC06qzDwCg2b5ZXUeLsw8AAwii09pSQAlxPwPjsqz9jt7HCgDodtxF6kfwsQRFKMBcweQoYNA+Mv0LkPUxbEidyNkSzPk9mEaBfmW1D8cZ7cRoe/YBYABBdFpLCiih2WOnz1GtTzGiqVEwsQ/gETAOsbbjLjJ0oAgBv4NJ22uVAZAOIBjAQ4K3qO/PPC/VBOIeQNTmad1qJ0Zd3k+FCuoQQtRc8uRgB9AV13EU+i2+uFXLNslEM+vFHVyF+xLG72vUJ+HrOHQeo07vpyLMQBCd0I4CSqIZjTIqlyurwpu/CW7jJDqhFQWURESOGEAQHdeWI7yJiBwxgCA6rg0FlEREBhhAEB3Tig6UREQGGEAQHaMG+93HA3H5goguNQYQRBMGh0u9wwJKIrrcGEAQTQRBZDYWCyiJ6GdFU98AAALjSURBVJJjAEE0JoJPLcZpzBHXREQOGEAQAUAv7ihg1DWyYUdcExHlwACCCAB8LJudONjUI66JiObAAIIIALxg3WwsTVn/QESXHgMIoq2DSKCh2XgsoCSiFmAAQSTYsRpKgT4LKImoDRhAULt9Fa+YZh9U98zGIiKqMQYQ1F69ODStfQAAL3tmOh4RUU0xgKD2Wgi+scw+KCTB54usfyCiVgiqngBRFeTJQQ9mbavHNHtqOh4RUY0xA0GtMw4eHpoPPMx2zcckIqopZiCoPXpxB4G/A6hRx8l3FLKLtcXEelwiorpiAEHtsHUQQbBjuuPiOB1y+YKIWkWqngBRobYOIoiuCxAVdQkF+vji5t2ixiciqiNmIOjy6cUd+P4KPHwq0Kjw60m6Vvg1iIhqhgEE1d/WwTIEPYjuI8UeRI5vlexAtQPRUDzvlips21JfQCG73LpJRG3EAIJqTwSfAhpCEcLDMqAnvmD8f1RLXZNTSILD4WaJlyQiqg1u46Ta0wLrF5xkusmdF0TUVsxAUL1Zn5RpRCG7+PLGbtXzICKqCjMQVHOZec8GV+OlCxZOElGrMYCgehNvqeopHDcOHu7yyG4iajv2gaD66sWhLPhx1dOYOBY8JFXPhYioasxAUH359SmeZPBARPQ+BhBUX55/r+opAAweiIim4RIG1VMv7siC/1PV01DFMwzT+6x5ICJ6H7dxUj0FQXSqYVSJVGUA0U2s3nxU2SSIiGqMAQTV0qj7ZDUU6GM4vM8lCyKiszGAoFpSICp7fU2BPjTdxOpiv+RLExE1DgMIqp+Su08ycCAimh8DCKof1W7R5b2joEH3MMwesUCSiGh+3IVB9dSLOwjQBbwInnwERShAN89Q44LIBCL7SId7SPGMQQMRkRsGENQsX8chhgjHf+pA0TnzawUJAiT4PYshiYiIiIiIiIiIiIiIiIiIiIiIiIiIiIiIiIiIiIiIiIiIiIiIiIiIAAD/A06TbpW2w2D0AAAAAElFTkSuQmCC;" vertex="1" parent="1">
          <mxGeometry x="640" y="-644" width="139.76" height="54" as="geometry" />
        </mxCell>
        <mxCell id="8JLq0JfyCQMj6DjxHrRQ-13" style="edgeStyle=orthogonalEdgeStyle;rounded=0;orthogonalLoop=1;jettySize=auto;html=1;entryX=0;entryY=0.5;entryDx=0;entryDy=0;" edge="1" parent="1" source="8JLq0JfyCQMj6DjxHrRQ-6" target="8JLq0JfyCQMj6DjxHrRQ-12">
          <mxGeometry relative="1" as="geometry" />
        </mxCell>
        <mxCell id="8JLq0JfyCQMj6DjxHrRQ-6" value="CustomFineTuner" style="rounded=1;whiteSpace=wrap;html=1;" vertex="1" parent="1">
          <mxGeometry x="659.76" y="-510" width="120" height="60" as="geometry" />
        </mxCell>
        <mxCell id="8JLq0JfyCQMj6DjxHrRQ-10" value="HuggingFace&#xa;" style="shape=image;verticalLabelPosition=bottom;labelBackgroundColor=default;verticalAlign=top;aspect=fixed;imageAspect=0;editableCssRules=.*;image=data:image/svg+xml,PHN2ZyB4bWxucz0iaHR0cDovL3d3dy53My5vcmcvMjAwMC9zdmciIGZpbGw9Im5vbmUiIHZpZXdCb3g9IjI1LjQ2OTgzOTA5NjA2OTMzNiAzMi4xNDUwMDA0NTc3NjM2NyAyMDUuOTU2MjA3Mjc1MzkwNjIgMTkxLjIwMTIxNzY1MTM2NzIiIGhlaWdodD0iMTkxLjIwMTIxNzY1MTM2NzIiIHdpZHRoPSIyMDUuOTU2MjA3Mjc1MzkwNjIiPiYjeGE7PHBhdGggZmlsbD0id2hpdGUiIGQ9Ik0yMzAuNzIxIDE3Mi43QzIzMC4xODMgMTcwLjY3MyAyMjkuMzEzIDE2OC43NSAyMjguMTQ2IDE2Ny4wMDhDMjI4LjM5NiAxNjYuMDkxIDIyOC41ODcgMTY1LjE1OSAyMjguNzE0IDE2NC4yMTdDMjI5LjU0MyAxNTguMjQxIDIyNy40NzEgMTUyLjc3IDIyMy41NjcgMTQ4LjUzN0MyMjEuNDUyIDE0Ni4yMjUgMjE5LjE4NSAxNDQuNjk4IDIxNi43ODQgMTQzLjc2MUMyMTguMzYgMTM3LjAxOCAyMTkuMTU3IDEzMC4xMTcgMjE5LjE2MSAxMjMuMTkzQzIxOS4xNjEgMTIwLjAzIDIxOC45ODIgMTE2LjkzMiAyMTguNjgyIDExMy44OEMyMTguNTI2IDExMi4zNTYgMjE4LjMzNyAxMTAuODM2IDIxOC4xMTUgMTA5LjMyQzIxNy40MjggMTA0Ljg0NyAyMTYuNDA4IDEwMC40MzEgMjE1LjA2NCA5Ni4xMUMyMTQuMTgzIDkzLjI3MDcgMjEzLjE2NCA5MC40NzYgMjEyLjAxIDg3LjczNkMyMTAuMjgxIDgzLjY3ODIgMjA4LjI2MiA3OS43NSAyMDUuOTY5IDc1Ljk4MkMyMDQuNDY1IDczLjQ3NSAyMDIuODI3IDcxLjA1MDggMjAxLjA2MiA2OC43MkMyMDAuMTk3IDY3LjU0MyAxOTkuMjk2IDY2LjM5MzggMTk4LjM1OCA2NS4yNzRDMTk1LjU4IDYxLjg5OCAxOTIuNTYxIDU4LjcyNzcgMTg5LjMyNSA1NS43ODhDMTg4LjI1IDU0Ljc5OTcgMTg3LjE0NSA1My44NDUzIDE4Ni4wMSA1Mi45MjZDMTg0Ljg5MyA1MS45OTQzIDE4My43NTEgNTEuMDkyNyAxODIuNTg2IDUwLjIyMkMxODAuMjQxIDQ4LjQ3NjYgMTc3LjgxOCA0Ni44MzkyIDE3NS4zMjQgNDUuMzE1QzE2MS41NDMgMzYuOTQ1IDE0NS4zODIgMzIuMTQ1IDEyOC4xMDkgMzIuMTQ1Qzc3LjgxNyAzMi4xNDUgMzcuMDU3IDcyLjkwNyAzNy4wNTcgMTIzLjE5NkMzNy4wNTUgMTMwLjIwOCAzNy44NjcgMTM3LjE5NiAzOS40NzcgMTQ0LjAyQzM3LjMxNyAxNDQuOTU4IDM1LjI0NyAxNDYuNDIgMzMuMzI3IDE0OC41MzVDMjkuNDI0IDE1Mi43NjYgMjcuMzUxIDE1OC4yMTcgMjguMTggMTY0LjE5M0MyOC4zMDYgMTY1LjE0MiAyOC40OTUgMTY2LjA4MiAyOC43NDcgMTY3LjAwNkMyNy41ODExIDE2OC43NDkgMjYuNzExNyAxNzAuNjczIDI2LjE3NCAxNzIuN0MyNC45NzQgMTc3LjI2MSAyNS4zNjkgMTgxLjM3NCAyNi44OTQgMTg0Ljk3OEMyNS4yMzYgMTg5LjY4OCAyNS42NSAxOTQuNzA0IDI3LjgwOSAxOTkuMDY1QzI5LjM3OSAyMDIuMjUgMzEuNjI2IDIwNC43MTQgMzQuMzk2IDIwNi45MTZDMzcuNjg5IDIwOS41MzQgNDEuODExIDIxMS43NTggNDYuNzgzIDIxMy44OTJDNTIuNzE1IDIxNi40MjIgNTkuOTU2IDIxOC43OTkgNjMuMjQ5IDIxOS42NzFDNzEuNzU1IDIyMS44NzMgNzkuOTExIDIyMy4yNjkgODguMTc3IDIyMy4zMzdDOTkuOTU0IDIyMy40NDYgMTEwLjA5NiAyMjAuNjc3IDExNy4zNTcgMjEzLjU5QzEyMC45MjQgMjE0LjAyNyAxMjQuNTE1IDIxNC4yNDYgMTI4LjEwOSAyMTQuMjQ0QzEzMS45MDYgMjE0LjIzNiAxMzUuNjk5IDIxMy45OTcgMTM5LjQ2NyAyMTMuNTI5QzE0Ni43MTEgMjIwLjY2MSAxNTYuODkyIDIyMy40NTUgMTY4LjcxMiAyMjMuMzQzQzE3Ni45NzcgMjIzLjI3NyAxODUuMTMzIDIyMS44ODEgMTkzLjYxNyAyMTkuNjc2QzE5Ni45MzIgMjE4LjgwNCAyMDQuMTcgMjE2LjQyNyAyMTAuMTA1IDIxMy44OTdDMjE1LjA3NyAyMTEuNzYgMjE5LjE5OSAyMDkuNTM2IDIyMi41MTQgMjA2LjkyMkMyMjUuMjYzIDIwNC43MTkgMjI3LjUwOCAyMDIuMjU2IDIyOS4wNzkgMTk5LjA3MUMyMzEuMjYgMTk0LjcwOSAyMzEuNjUyIDE4OS42OTMgMjMwLjAxNyAxODQuOTgzQzIzMS41MjcgMTgxLjM3OSAyMzEuOTIgMTc3LjI1NyAyMzAuNzIxIDE3Mi43Wk0yMjIuMjgxIDE4NC42NzNDMjIzLjk1MiAxODcuODQ0IDIyNC4wNTkgMTkxLjQyNyAyMjIuNTg1IDE5NC43NjRDMjIwLjM0OSAxOTkuODIxIDIxNC43OTUgMjAzLjgwNSAyMDQuMDA4IDIwOC4wODJDMTk3LjMgMjEwLjc0MiAxOTEuMTU4IDIxMi40NDMgMTkxLjEwNCAyMTIuNDU4QzE4Mi4yMzIgMjE0Ljc1OSAxNzQuMjA4IDIxNS45MjggMTY3LjI2MiAyMTUuOTI4QzE1NS43NiAyMTUuOTI4IDE0Ny4yMDEgMjEyLjc1NCAxNDEuNzczIDIwNi40ODZDMTMyLjU5NCAyMDguMDUgMTIzLjIyMiAyMDguMTAzIDExNC4wMjYgMjA2LjY0NEMxMDguNTkxIDIxMi44MDggMTAwLjA4MSAyMTUuOTI4IDg4LjY3NiAyMTUuOTI4QzgxLjcyOSAyMTUuOTI4IDczLjcwNiAyMTQuNzU5IDY0LjgzMyAyMTIuNDU4QzY0Ljc3OSAyMTIuNDQzIDU4LjYzOSAyMTAuNzQyIDUxLjkyOSAyMDguMDgyQzQxLjE0MyAyMDMuODA1IDM1LjU4NyAxOTkuODI0IDMzLjM1MiAxOTQuNzY0QzMxLjg3OCAxOTEuNDI3IDMxLjk4NSAxODcuODQ0IDMzLjY1NiAxODQuNjczQzMzLjgxIDE4NC4zNzggMzMuOTc2IDE4NC4wOTEgMzQuMTUzIDE4My44MTNDMzMuMTUxNiAxODIuMzA5IDMyLjQ3OTkgMTgwLjYxIDMyLjE4MiAxNzguODI3QzMxLjg4NDIgMTc3LjA0NSAzMS45NjcgMTc1LjIyIDMyLjQyNSAxNzMuNDcyQzMzLjA4OSAxNzAuOTQ5IDM0LjQ2IDE2OC44NTEgMzYuMzIyIDE2Ny4zNDRDMzUuNDI1IDE2NS44NyAzNC44MzY1IDE2NC4yMyAzNC41OTIgMTYyLjUyMkMzNC4wNTYgMTU4LjgwOCAzNS4yODkgMTU1LjEgMzguMDYyIDE1Mi4wNzZDNDAuMjIyIDE0OS43MjMgNDMuMjc1IDE0OC40MjggNDYuNjU1IDE0OC40MjhINDYuNzQ1QzQ0LjE5NjUgMTQwLjI1OSA0Mi45MDQ0IDEzMS43NSA0Mi45MTMgMTIzLjE5M0M0Mi45MTMgNzYuNTIyIDgwLjc0OSAzOC42ODMgMTI3LjQyNyAzOC42ODNDMTc0LjEwNCAzOC42ODMgMjExLjk0IDc2LjUxOCAyMTEuOTQgMTIzLjE5M0MyMTEuOTQ3IDEzMS43NzMgMjEwLjY0NiAxNDAuMzA0IDIwOC4wODEgMTQ4LjQ5MkMyMDguNDg5IDE0OC40NTIgMjA4Ljg4OSAxNDguNDMyIDIwOS4yODIgMTQ4LjQzMUMyMTIuNjYyIDE0OC40MzEgMjE1LjcxNiAxNDkuNzI2IDIxNy44NzQgMTUyLjA3OUMyMjAuNjQ3IDE1NS4xIDIyMS44ODEgMTU4LjgxMSAyMjEuMzQ0IDE2Mi41MjVDMjIxLjEgMTY0LjIzMyAyMjAuNTExIDE2NS44NzMgMjE5LjYxNSAxNjcuMzQ3QzIyMS40NzcgMTY4Ljg1NCAyMjIuODQ5IDE3MC45NTIgMjIzLjUxMiAxNzMuNDc1QzIyMy45NyAxNzUuMjIzIDIyNC4wNTMgMTc3LjA0OCAyMjMuNzU1IDE3OC44MzFDMjIzLjQ1OCAxODAuNjEzIDIyMi43ODYgMTgyLjMxMiAyMjEuNzg0IDE4My44MTZDMjIxLjk2MSAxODQuMDkxIDIyMi4xMjkgMTg0LjM3OCAyMjIuMjgxIDE4NC42NzNaIi8+JiN4YTs8cGF0aCBmaWxsPSIjRkY5RDAwIiBkPSJNMjIxLjc4NCAxODMuODE2QzIyMi43ODYgMTgyLjMxMiAyMjMuNDU4IDE4MC42MTMgMjIzLjc1NiAxNzguODMxQzIyNC4wNTMgMTc3LjA0OCAyMjMuOTcgMTc1LjIyMyAyMjMuNTEyIDE3My40NzVDMjIyLjg0OCAxNzAuOTUyIDIyMS40NzYgMTY4Ljg1NCAyMTkuNjE1IDE2Ny4zNDdDMjIwLjUxMiAxNjUuODczIDIyMS4xIDE2NC4yMzMgMjIxLjM0NCAxNjIuNTI1QzIyMS44ODEgMTU4LjgxMSAyMjAuNjQ4IDE1NS4xMDMgMjE3Ljg3NCAxNTIuMDc5QzIxNS43MTYgMTQ5LjcyNiAyMTIuNjYyIDE0OC40MzEgMjA5LjI4MiAxNDguNDMxQzIwOC44ODkgMTQ4LjQzMSAyMDguNDg5IDE0OC40NTIgMjA4LjA4MSAxNDguNDkyQzIxMC42NDMgMTQwLjMwNCAyMTEuOTQyIDEzMS43NzQgMjExLjkzMyAxMjMuMTk1QzIxMS45MzMgNzYuNTIzMSAxNzQuMDk3IDM4LjY4NTEgMTI3LjQyNCAzOC42ODUxQzgwLjc1IDM4LjY4NTEgNDIuOTA5OSA3Ni41MTkxIDQyLjkwOTkgMTIzLjE5NUM0Mi45MDE1IDEzMS43NTIgNDQuMTkzNiAxNDAuMjYxIDQ2Ljc0MiAxNDguNDNINDYuNjUxOUM0My4yNzE5IDE0OC40MyA0MC4yMTkgMTQ5LjcyNCAzOC4wNiAxNTIuMDc3QzM1LjI4NyAxNTUuMDk4IDM0LjA1MjkgMTU4LjgxIDM0LjU4OTkgMTYyLjUyM0MzNC44MzQ2IDE2NC4yMzEgMzUuNDIzMSAxNjUuODcyIDM2LjMxOTkgMTY3LjM0NkMzNC40NTc5IDE2OC44NTIgMzMuMDg2IDE3MC45NSAzMi40MjIgMTczLjQ3M0MzMS45NjQyIDE3NS4yMjIgMzEuODgxNyAxNzcuMDQ3IDMyLjE3OTkgMTc4LjgzQzMyLjQ3ODEgMTgwLjYxMiAzMy4xNTAxIDE4Mi4zMTIgMzQuMTUxOSAxODMuODE2QzMzLjk3MzkgMTg0LjA5NCAzMy44MDk5IDE4NC4zODEgMzMuNjU0OSAxODQuNjc2QzMxLjk4NDkgMTg3Ljg0NyAzMS44NzcgMTkxLjQzIDMzLjM1MiAxOTQuNzY3QzM1LjU4OCAxOTkuODI0IDQxLjE0MTkgMjAzLjgwOCA1MS45Mjg5IDIwOC4wODVDNTguNjM1OSAyMTAuNzQ1IDY0Ljc3OSAyMTIuNDQ2IDY0LjgzMyAyMTIuNDYxQzczLjcwNSAyMTQuNzYyIDgxLjcyOSAyMTUuOTMxIDg4LjY3NSAyMTUuOTMxQzEwMC4wODEgMjE1LjkzMSAxMDguNTkxIDIxMi44MTEgMTE0LjAyNiAyMDYuNjQ3QzEyMy4yMjIgMjA4LjEwNiAxMzIuNTk0IDIwOC4wNTIgMTQxLjc3MyAyMDYuNDg5QzE0Ny4yMDEgMjEyLjc1NyAxNTUuNzYgMjE1LjkzMSAxNjcuMjYyIDIxNS45MzFDMTc0LjIwOCAyMTUuOTMxIDE4Mi4yMzIgMjE0Ljc2MiAxOTEuMTAzIDIxMi40NjFDMTkxLjE1OCAyMTIuNDQ2IDE5Ny4yOTggMjEwLjc0NSAyMDQuMDA4IDIwOC4wODVDMjE0Ljc5NSAyMDMuODA4IDIyMC4zNSAxOTkuODI0IDIyMi41ODUgMTk0Ljc2N0MyMjQuMDU5IDE5MS40MyAyMjMuOTUyIDE4Ny44NDcgMjIyLjI4MSAxODQuNjc2QzIyMi4xMjkgMTg0LjM3OSAyMjEuOTYxIDE4NC4wOTEgMjIxLjc4NCAxODMuODE2Wk0xMTAuMTM3IDE5Ni45OTdDMTA5LjY2OSAxOTcuODE1IDEwOS4xNjggMTk4LjYxNCAxMDguNjM1IDE5OS4zOTFDMTA3LjIzIDIwMS40NDggMTA1LjM4MiAyMDMuMDIgMTAzLjIzNyAyMDQuMTg4Qzk5LjEzNjkgMjA2LjQyNCA5My45NDcgMjA3LjIwNSA4OC42NzUgMjA3LjIwNUM4MC4zNDYgMjA3LjIwNSA3MS44MDggMjA1LjI1NiA2Ny4wMjMgMjA0LjAxNUM2Ni43ODcgMjAzLjk1NCAzNy42ODkgMTk1LjczNSA0MS4zNzMgMTg4LjczOUM0MS45OTMgMTg3LjU2MiA0My4wMTI5IDE4Ny4wOTIgNDQuMjk3OSAxODcuMDkyQzQ5LjQ4NDkgMTg3LjA5MiA1OC45Mjk5IDE5NC44MTYgNjIuOTg4OSAxOTQuODE2QzYzLjg5NTkgMTk0LjgxNiA2NC41MzU5IDE5NC40MyA2NC43OTY5IDE5My40ODhDNjYuNTI2OSAxODcuMjg0IDM4LjUwMzkgMTg0LjY3NiA0MC44NjM5IDE3NS42OTJDNDEuMjc5OSAxNzQuMTAyIDQyLjQxIDE3My40NTYgNDMuOTk4IDE3My40NTZDNTAuODU2IDE3My40NTUgNjYuMjQ4IDE4NS41MTYgNjkuNDY3IDE4NS41MTZDNjkuNzE0IDE4NS41MTYgNjkuODkwOSAxODUuNDQzIDY5Ljk4NjkgMTg1LjI5MUM3MC4wMDA5IDE4NS4yNjggNzAuMDE1IDE4NS4yNDYgNzAuMDI4IDE4NS4yMjJDNzEuNTM5IDE4Mi43MjcgNzAuNjcxOSAxODAuOTEzIDYwLjMyMDkgMTc0LjU3M0w1OS4zMjY5IDE3My45NjhDNDcuOTM1OSAxNjcuMDc0IDM5Ljk0MDkgMTYyLjkyNSA0NC40ODc5IDE1Ny45NzVDNDUuMDEwOSAxNTcuNDA0IDQ1Ljc1MjkgMTU3LjE1MSA0Ni42NTM5IDE1Ny4xNTFDNDcuNzIxOSAxNTcuMTUxIDQ5LjAxNDkgMTU3LjUwOCA1MC40Mzg5IDE1OC4xMDhDNTYuNDU0OSAxNjAuNjQ1IDY0Ljc5MyAxNjcuNTY0IDY4LjI3NiAxNzAuNTgxQzY4LjgyMzkgMTcxLjA1NyA2OS4zNjgzIDE3MS41MzggNjkuOTA4OSAxNzIuMDIyQzY5LjkwODkgMTcyLjAyMiA3NC4zMTkgMTc2LjYwOCA3Ni45ODUgMTc2LjYwOEM3Ny41OTkgMTc2LjYwOCA3OC4xMTk5IDE3Ni4zNjYgNzguNDcyOSAxNzUuNzY4QzgwLjM2NCAxNzIuNTggNjAuOTA5OSAxNTcuODM4IDU5LjgxMjkgMTUxLjc1NUM1OS4wNjg5IDE0Ny42MzQgNjAuMzM0OSAxNDUuNTQ2IDYyLjY3NDkgMTQ1LjU0NkM2My43ODc5IDE0NS41NDYgNjUuMTQ1OSAxNDYuMDIgNjYuNjQ0OSAxNDYuOTcxQzcxLjI5NDkgMTQ5LjkyMiA4MC4yNzI5IDE2NS4zNSA4My41NTk5IDE3MS4zNTJDODQuNjYxOSAxNzMuMzYzIDg2LjU0MjkgMTc0LjIxMyA4OC4yMzc5IDE3NC4yMTNDOTEuNjAwOSAxNzQuMjEzIDk0LjIyOTkgMTcwLjg3IDg4LjU0NTkgMTY2LjYyMkM4MC4wMDI5IDE2MC4yMyA4My4wMDEgMTQ5Ljc4MiA4Ny4wNzggMTQ5LjEzOUM4Ny4yNTIgMTQ5LjExMSA4Ny40Mjc5IDE0OS4wOTcgODcuNjAyOSAxNDkuMDk3QzkxLjMxMDkgMTQ5LjA5NyA5Mi45NDU5IDE1NS40ODYgOTIuOTQ1OSAxNTUuNDg2QzkyLjk0NTkgMTU1LjQ4NiA5Ny43Mzk5IDE2Ny41MjQgMTA1Ljk3NSAxNzUuNzUzQzExMy40NDcgMTgzLjIyMiAxMTQuNDkxIDE4OS4zNTEgMTEwLjEzNyAxOTYuOTk3Wk0xMzYuNzY2IDE5OC40MDdMMTM2LjMzOSAxOTguNDU4TDEzNS42MTEgMTk4LjU0MUMxMzUuMjI4IDE5OC41ODEgMTM0Ljg0NCAxOTguNjE5IDEzNC40NTkgMTk4LjY1NEwxMzQuMDg0IDE5OC42ODhMMTMzLjc0MSAxOTguNzE3TDEzMy4yNTUgMTk4Ljc1NkwxMzIuNzE4IDE5OC43OTVMMTMyLjE4MiAxOTguODNMMTMyLjA2MyAxOTguODM4QzEzMS45MjMgMTk4Ljg0NiAxMzEuNzgzIDE5OC44NTUgMTMxLjY0MSAxOTguODYyTDEzMS40NjIgMTk4Ljg3MkMxMzEuMjk2IDE5OC44ODEgMTMxLjEzIDE5OC44ODkgMTMwLjk2MiAxOTguODk2TDEzMC4zODEgMTk4LjkyMUwxMjkuODU0IDE5OC45MzlMMTI5LjUwMiAxOTguOTQ5SDEyOS4zMjNDMTI5LjIxMyAxOTguOTQ5IDEyOS4xMDQgMTk4Ljk1NSAxMjguOTk0IDE5OC45NTZIMTI4LjgyQzEyOC43MSAxOTguOTU2IDEyOC42MDEgMTk4Ljk1NiAxMjguNDkxIDE5OC45NjFMMTI4LjA0MyAxOTguOTY3SDEyNy40MThDMTI2LjkyNyAxOTguOTY3IDEyNi40MzcgMTk4Ljk2MiAxMjUuOTQ5IDE5OC45NTJMMTI1LjU1MyAxOTguOTQzQzEyNS40NCAxOTguOTQzIDEyNS4zMjcgMTk4LjkzOCAxMjUuMjE2IDE5OC45MzRMMTI0Ljc5NiAxOTguOTIyTDEyNC4yNzUgMTk4LjkwMkwxMjMuODA1IDE5OC44ODFMMTIzLjY4NCAxOTguODc2TDEyMy4yMzcgMTk4Ljg1M0MxMjMuMTEyIDE5OC44NDYgMTIyLjk4OSAxOTguODQgMTIyLjg2NSAxOTguODMxTDEyMi41NzYgMTk4LjgxNEMxMjIuMjEzIDE5OC43OTEgMTIxLjg1IDE5OC43NjYgMTIxLjQ4NyAxOTguNzM4TDEyMS4xMDcgMTk4LjcwN0MxMjAuOTQ3IDE5OC42OTUgMTIwLjc4NyAxOTguNjggMTIwLjYyOCAxOTguNjY2QzEyMC40NDEgMTk4LjY1IDEyMC4yNTQgMTk4LjYzMiAxMjAuMDY3IDE5OC42MTRDMTE5Ljc1NCAxOTguNTg1IDExOS40NDEgMTk4LjU1MyAxMTkuMTI4IDE5OC41MTlIMTE5LjExM0MxMjMuNjgzIDE4OC4zMjQgMTIxLjM3MiAxNzguODAyIDExMi4xMzcgMTY5LjU3NUMxMDYuMDggMTYzLjUyNiAxMDIuMDUxIDE1NC41OTQgMTAxLjIxNSAxNTIuNjMzQzk5LjUyMjkgMTQ2LjgyOCA5NS4wNDUgMTQwLjM3NSA4Ny42MDggMTQwLjM3NUM4Ni45NzkgMTQwLjM3NSA4Ni4zNTEgMTQwLjQyNSA4NS43MyAxNDAuNTIzQzgyLjQ3MiAxNDEuMDM2IDc5LjYyNCAxNDIuOTExIDc3LjU5MiAxNDUuNzMzQzc1LjM5NiAxNDMuMDAyIDczLjI2MiAxNDAuODMxIDcxLjMzMiAxMzkuNjA1QzY4LjQyMiAxMzcuNzYgNjUuNTE3OSAxMzYuODI0IDYyLjY4ODkgMTM2LjgyNEM1OS4xNTc5IDEzNi44MjQgNTYuMDAxOSAxMzguMjc0IDUzLjgwMTkgMTQwLjkwNEw1My43NDU5IDE0MC45NzFDNTMuNzAzOSAxNDAuNzk4IDUzLjY2MzkgMTQwLjYyNSA1My42MjI5IDE0MC40NTFMNTMuNjE3OSAxNDAuNDI4QzUzLjE5OTIgMTM4LjYzOCA1Mi44NDc3IDEzNi44MzMgNTIuNTYzOSAxMzUuMDE2QzUyLjU2MzkgMTM1LjAwNCA1Mi41NjM5IDEzNC45OTIgNTIuNTU3OSAxMzQuOThDNTIuNTM1OSAxMzQuODQzIDUyLjUxNTkgMTM0LjcwNSA1Mi40OTQ5IDEzNC41NjhDNTIuNDMzNCAxMzQuMTYyIDUyLjM3NTcgMTMzLjc1NSA1Mi4zMjE5IDEzMy4zNDhDNTIuMjk3OSAxMzMuMTYzIDUyLjI3MTkgMTMyLjk3OCA1Mi4yNDg5IDEzMi43OTNMNTIuMTgwOSAxMzIuMjM4QzUyLjE1ODkgMTMyLjA1MyA1Mi4xNDA5IDEzMS44ODUgNTIuMTIwOSAxMzEuNzA5TDUyLjExNSAxMzEuNjY1QzUyLjAzNTEgMTMwLjk0NSA1MS45NjUxIDEzMC4yMjUgNTEuOTA0OSAxMjkuNTAzTDUxLjg4MjkgMTI5LjIyNkw1MS44NDc5IDEyOC43NTRDNTEuODM3OSAxMjguNjI1IDUxLjgyNzkgMTI4LjQ5NSA1MS44MjA5IDEyOC4zNjVDNTEuODIwOSAxMjguMzM0IDUxLjgxNTkgMTI4LjMwNCA1MS44MTQ5IDEyOC4yNzVDNTEuNzg5NSAxMjcuOTEzIDUxLjc2NzggMTI3LjU1IDUxLjc0OTkgMTI3LjE4N0M1MS43Mzk5IDEyNi45OTggNTEuNzI5OSAxMjYuODEgNTEuNzIxOSAxMjYuNjJMNTEuNzAxOSAxMjYuMTI0TDUxLjY5NjkgMTI1Ljk3NEw1MS42ODA5IDEyNS41MTdMNTEuNjcwOSAxMjUuMTI4QzUxLjY3MDkgMTI0Ljk3MyA1MS42NjI5IDEyNC44MTggNTEuNjYwOSAxMjQuNjYzQzUxLjY1NzkgMTI0LjUwOCA1MS42NTM5IDEyNC4zMzggNTEuNjUyOSAxMjQuMTc0QzUxLjY1MDkgMTI0LjAxIDUxLjY1MjkgMTIzLjg0OCA1MS42NDc5IDEyMy42ODVDNTEuNjQzOSAxMjMuNTIxIDUxLjY0NzkgMTIzLjM1OCA1MS42NDc5IDEyMy4xOTVDNTEuNjQ3OSA4MS4zNDIxIDg1LjU3ODkgNDcuNDExMSAxMjcuNDM2IDQ3LjQxMTFDMTY5LjI5MiA0Ny40MTExIDIwMy4yMjIgODEuMzQxMSAyMDMuMjIyIDEyMy4xOTVWMTI0LjE3NEMyMDMuMjIyIDEyNC4zMzcgMjAzLjIxNyAxMjQuNTAxIDIwMy4yMTQgMTI0LjY2M0MyMDMuMjE0IDEyNC43OTggMjAzLjIwOCAxMjQuOTMxIDIwMy4yMDQgMTI1LjA2OEMyMDMuMjA0IDEyNS4xODggMjAzLjE5OSAxMjUuMzA5IDIwMy4xOTUgMTI1LjQyNUMyMDMuMTk1IDEyNS41NzggMjAzLjE4NiAxMjUuNzMxIDIwMy4xODEgMTI1Ljg4NFYxMjUuODk2TDIwMy4xNiAxMjYuNDI3QzIwMy4xNTMgMTI2LjU4MiAyMDMuMTQ3IDEyNi43MzggMjAzLjEzOSAxMjYuODkzTDIwMy4xMzQgMTI3LjAwM0wyMDMuMTA3IDEyNy40OTlDMjAzLjA0OCAxMjguNTYyIDIwMi45NjcgMTI5LjYyMyAyMDIuODY2IDEzMC42ODNWMTMwLjY5NkMyMDIuODQ5IDEzMC44NyAyMDIuODMyIDEzMS4wNDQgMjAyLjgxMyAxMzEuMjE4TDIwMi43NjggMTMxLjYyOUwyMDIuNjc5IDEzMi40MzNMMjAyLjYyOCAxMzIuODRMMjAyLjU2NSAxMzMuMzE5QzIwMi41NDIgMTMzLjQ5MyAyMDIuNTE5IDEzMy42NjggMjAyLjQ5MyAxMzMuODQxQzIwMi40NjcgMTM0LjAzNiAyMDIuNDM4IDEzNC4yMyAyMDIuNDA5IDEzNC40MjRMMjAyLjM0IDEzNC44ODNMMjAyLjI1OCAxMzUuNDAzQzIwMi4yMyAxMzUuNTc2IDIwMi4yIDEzNS43NDggMjAyLjE2OCAxMzUuOTJDMjAyLjEzNSAxMzYuMDkzIDIwMi4xMDkgMTM2LjI2NSAyMDIuMDc5IDEzNi40MzdDMjAyLjAxOSAxMzYuNzgxIDIwMS45NTYgMTM3LjEyNSAyMDEuODkgMTM3LjQ2OEMyMDEuNzg5IDEzNy45ODEgMjAxLjY4NiAxMzguNDkzIDIwMS41OCAxMzkuMDA1TDIwMS40NyAxMzkuNTEyQzIwMS40MzQgMTM5LjY4MSAyMDEuMzk1IDEzOS44NTEgMjAxLjM1NyAxNDAuMDJDMTk5LjIyNCAxMzcuOTQ3IDE5Ni4zOTkgMTM2LjgxOCAxOTMuMjg0IDEzNi44MThDMTkwLjQ1NyAxMzYuODE4IDE4Ny41NSAxMzcuNzUzIDE4NC42NDEgMTM5LjU5OEMxODIuNzExIDE0MC44MjQgMTgwLjU3OCAxNDIuOTk2IDE3OC4zODEgMTQ1LjcyNkMxNzYuMzQ2IDE0Mi45MDQgMTczLjQ5OCAxNDEuMDI5IDE3MC4yNDIgMTQwLjUxNkMxNjkuNjIxIDE0MC40MTggMTY4Ljk5MyAxNDAuMzY4IDE2OC4zNjQgMTQwLjM2OEMxNjAuOTI1IDE0MC4zNjggMTU2LjQ1IDE0Ni44MjEgMTU0Ljc1NyAxNTIuNjI2QzE1My45MTcgMTU0LjU4NyAxNDkuODg3IDE2My41MTkgMTQzLjgyNSAxNjkuNTc3QzEzNC41OTYgMTc4Ljc3NSAxMzIuMjY4IDE4OC4yNTQgMTM2Ljc2NiAxOTguNDA3Wk0yMTUuMDA3IDE3Ny45OThMMjE0Ljk3NyAxNzguMDg3QzIxNC45MDEgMTc4LjI4OCAyMTQuODEzIDE3OC40ODQgMjE0LjcxNCAxNzguNjc0QzIxNC42MzkgMTc4LjgxNCAyMTQuNTU4IDE3OC45NSAyMTQuNDcgMTc5LjA4MkMyMTQuMzAzIDE3OS4zMzEgMjE0LjEyIDE3OS41NjkgMjEzLjkyMSAxNzkuNzkzQzIxMy44NzUgMTc5Ljg0NSAyMTMuODMxIDE3OS44OTcgMjEzLjc3OSAxNzkuOTQ4QzIxMy43MDcgMTgwLjAyNSAyMTMuNjM0IDE4MC4xMDEgMjEzLjU1OSAxODAuMTc1QzIxMi4yMTMgMTgxLjUwOSAyMTAuMTYxIDE4Mi42NzkgMjA3Ljg0MSAxODMuNzUyQzIwNy41NzggMTgzLjg3MSAyMDcuMzExIDE4My45OSAyMDcuMDQyIDE4NC4xMUwyMDYuNzc0IDE4NC4yMjlDMjA2LjU5NSAxODQuMzA4IDIwNi40MTYgMTg0LjM4NiAyMDYuMjI4IDE4NC40NjNDMjA2LjA0OSAxODQuNTQxIDIwNS44NjMgMTg0LjYxOSAyMDUuNjc3IDE4NC42OTVMMjA1LjExOSAxODQuOTI1QzIwMy44MTQgMTg1LjQ2MiAyMDIuNDc3IDE4NS45NzQgMjAxLjE3MyAxODYuNDc5TDIwMC42MTUgMTg2LjY5NkwyMDAuMDY0IDE4Ni45MTJDMTk5LjY5NyAxODcuMDU1IDE5OS4zMzUgMTg3LjE5OCAxOTguOTc5IDE4Ny4zNDFMMTk4LjQ0OCAxODcuNTU1TDE5Ny45MjYgMTg3Ljc2OEwxOTcuNjcgMTg3Ljg3NkMxOTcuNDk5IDE4Ny45NDcgMTk3LjMzMiAxODguMDE4IDE5Ny4xNjUgMTg4LjA4OUMxOTMuMzI4IDE4OS43MzYgMTkwLjU2NyAxOTEuNDExIDE5MS4xNDcgMTkzLjQ4OUMxOTEuMTYzIDE5My41NDggMTkxLjE4MSAxOTMuNjA0IDE5MS4yMDEgMTkzLjY1OUMxOTEuMjUzIDE5My44MTMgMTkxLjMyNCAxOTMuOTU4IDE5MS40MTMgMTk0LjA5NUMxOTEuNDY1IDE5NC4xNzYgMTkxLjUyNSAxOTQuMjUzIDE5MS41OTIgMTk0LjMyM0MxOTIuMjc0IDE5NS4wMzIgMTkzLjUxNSAxOTQuOTIgMTk1LjA4IDE5NC4zNTdDMTk1LjMgMTk0LjI3NiAxOTUuNTE5IDE5NC4xOTIgMTk1LjczNiAxOTQuMTA0TDE5NS44NzIgMTk0LjA0OEMxOTYuMjMgMTkzLjg5NiAxOTYuNjA5IDE5My43MjYgMTk2Ljk5NiAxOTMuNTQyQzE5Ny4wOTMgMTkzLjQ5NiAxOTcuMTkxIDE5My40NTIgMTk3LjI4OSAxOTMuNDAxQzE5OS4yMDMgMTkyLjQ2NSAyMDEuMzcyIDE5MS4yMDUgMjAzLjUyNCAxOTAuMDU4QzIwNC4zODUgMTg5LjU5MyAyMDUuMjU4IDE4OS4xNTIgMjA2LjE0MiAxODguNzMzQzIwOC4xOCAxODcuNzc0IDIxMC4wOTYgMTg3LjA5NCAyMTEuNjM2IDE4Ny4wOTRDMjEyLjM1OSAxODcuMDk0IDIxMi45OTcgMTg3LjI0MiAyMTMuNTI5IDE4Ny41ODJMMjEzLjYxOCAxODcuNjQxQzIxMy45NTIgMTg3Ljg3NiAyMTQuMjMyIDE4OC4xNzggMjE0LjQ0MSAxODguNTI4QzIxNC40ODIgMTg4LjU5NSAyMTQuNTIyIDE4OC42NjYgMjE0LjU2MSAxODguNzM5QzIxNS4zMjIgMTkwLjE4NCAyMTQuNjg1IDE5MS42OCAyMTMuMTk0IDE5My4xNDdDMjExLjc2MyAxOTQuNTU2IDIwOS41MzcgMTk1LjkzNyAyMDcuMDA3IDE5Ny4yMTVDMjA2LjgxOSAxOTcuMzEgMjA2LjYzMSAxOTcuNDA1IDIwNi40NCAxOTcuNDk4QzE5OC45MSAyMDEuMTk2IDE4OS4wNDkgMjAzLjk4MSAxODguOTEyIDIwNC4wMTZDMTg2LjI4NCAyMDQuNjk3IDE4Mi41MjYgMjA1LjU5MSAxNzguMjkyIDIwNi4yNkwxNzcuNjY2IDIwNi4zNThMMTc3LjU2MyAyMDYuMzczQzE3Ny4wODkgMjA2LjQ0NSAxNzYuNjE0IDIwNi41MTIgMTc2LjEzOCAyMDYuNTc0QzE3NS42NTUgMjA2LjYzOSAxNzUuMTY3IDIwNi42OTggMTc0LjY3NiAyMDYuNzUzTDE3NC41ODYgMjA2Ljc2M0MxNzIuODA2IDIwNi45NjggMTcxLjAxOSAyMDcuMTA0IDE2OS4yMjggMjA3LjE2OUgxNjkuMjAyQzE2OC41NTQgMjA3LjE5MiAxNjcuOTA3IDIwNy4yMDQgMTY3LjI1OSAyMDcuMjA0SDE2Ni41MTJDMTY1LjUyNCAyMDcuMTkxIDE2NC41MzggMjA3LjE0NiAxNjMuNTUzIDIwNy4wN0MxNjMuNTMgMjA3LjA3IDE2My41MDUgMjA3LjA3IDE2My40ODIgMjA3LjA2NEMxNjMuMTI5IDIwNy4wMzcgMTYyLjc3NyAyMDcuMDA0IDE2Mi40MjUgMjA2Ljk2NUMxNjIuMDYgMjA2LjkyNiAxNjEuNjk2IDIwNi44ODIgMTYxLjMzMyAyMDYuODMzQzE2MS4wOTQgMjA2LjgwMSAxNjAuODU2IDIwNi43NjUgMTYwLjYxOCAyMDYuNzI2QzE2MC4zNzYgMjA2LjY4NyAxNjAuMTM0IDIwNi42NDcgMTU5Ljg5MyAyMDYuNjA1TDE1OS41NjQgMjA2LjU0M0wxNTkuNTM5IDIwNi41MzhDMTU5LjE5MiAyMDYuNDcyIDE1OC44NDcgMjA2LjM5OSAxNTguNTAzIDIwNi4zMTlDMTU4LjMwMyAyMDYuMjc0IDE1OC4xMDQgMjA2LjIzIDE1Ny45MDcgMjA2LjE3NkwxNTcuNzg4IDIwNi4xNDZDMTU3LjY5IDIwNi4xMjIgMTU3LjU5NSAyMDYuMDk2IDE1Ny40OTggMjA2LjA3TDE1Ny40NDUgMjA2LjA1NkwxNTcuMTM3IDIwNS45NjZDMTU3LjAyNSAyMDUuOTM1IDE1Ni45MTMgMjA1LjkwMSAxNTYuODAxIDIwNS44NjhMMTU2Ljc2MiAyMDUuODU3TDE1Ni40NzEgMjA1Ljc2OEMxNTYuMzYxIDIwNS43MzQgMTU2LjI1MSAyMDUuNjk4IDE1Ni4xNDIgMjA1LjY2MkwxNTUuODc0IDIwNS41NzNMMTU1LjY3NyAyMDUuNTA0QzE1NS40ODcgMjA1LjQzNyAxNTUuMjk4IDIwNS4zNjggMTU1LjExMSAyMDUuMjk2TDE1NC45MzMgMjA1LjIyNkwxNTQuNzg2IDIwNS4xNjhDMTU0LjUwMiAyMDUuMDU0IDE1NC4yMiAyMDQuOTM1IDE1My45NDEgMjA0LjgxTDE1My43NTYgMjA0LjcyTDE1My43MjUgMjA0LjcwNkMxNTMuNjU5IDIwNC42NzUgMTUzLjU5NCAyMDQuNjQ0IDE1My41MjggMjA0LjYxN0MxNTMuMzk5IDIwNC41NTUgMTUzLjI3MSAyMDQuNDkxIDE1My4xNDQgMjA0LjQyNkwxNTMuMTA1IDIwNC40MDdMMTUyLjkyMSAyMDQuMzFDMTUyLjU5NCAyMDQuMTM5IDE1Mi4yNzQgMjAzLjk1NyAxNTEuOTYgMjAzLjc2NEwxNTEuNzg4IDIwMy42NThDMTUxLjcwMiAyMDMuNjA1IDE1MS42MTYgMjAzLjU1IDE1MS41MzIgMjAzLjQ5NEwxNTEuMzA4IDIwMy4zNDZMMTUxLjA2NyAyMDMuMThMMTUwLjkyMyAyMDMuMDc3QzE1MC43NzEgMjAyLjk2OSAxNTAuNjIyIDIwMi44NTcgMTUwLjQ3NiAyMDIuNzQyTDE1MC4yNDMgMjAyLjU2M0MxNTAuMTUgMjAyLjQ4OCAxNTAuMDU4IDIwMi40MTIgMTQ5Ljk2NyAyMDIuMzM1QzE0OS44OSAyMDIuMjcyIDE0OS44MTUgMjAyLjIwNiAxNDkuNzQgMjAyLjE0TDE0OS43MzQgMjAyLjEzNUMxNDkuNjUzIDIwMi4wNjQgMTQ5LjU3NCAyMDEuOTkzIDE0OS40OTUgMjAxLjkyQzE0OS40MTcgMjAxLjg0OSAxNDkuMzM5IDIwMS43NzcgMTQ5LjI2MyAyMDEuNzA0TDE0OS4yNTQgMjAxLjY5NUMxNDkuMTc0IDIwMS42MTkgMTQ5LjA5NiAyMDEuNTQyIDE0OS4wMTkgMjAxLjQ2M0MxNDguOTQyIDIwMS4zODUgMTQ4Ljg2MyAyMDEuMzA3IDE0OC43ODggMjAxLjIyN0MxNDguNzEzIDIwMS4xNDggMTQ4LjYzNiAyMDEuMDY3IDE0OC41NjIgMjAwLjk4NEMxNDguNDg4IDIwMC45MDIgMTQ4LjQyIDIwMC44MjcgMTQ4LjM1IDIwMC43NDZMMTQ4LjMyNyAyMDAuNzE5QzE0OC4yNTkgMjAwLjY0MSAxNDguMTkyIDIwMC41NjIgMTQ4LjEyNiAyMDAuNDgxQzE0Ny45ODMgMjAwLjMxIDE0Ny44NDQgMjAwLjEzNSAxNDcuNzEgMTk5Ljk1NkMxNDcuNTc1IDE5OS43NzYgMTQ3LjQ0MyAxOTkuNTkyIDE0Ny4zMTQgMTk5LjQwNUwxNDcuMTkxIDE5OS4yMjFDMTQ3LjAyNyAxOTguOTgxIDE0Ni44NjcgMTk4LjczOSAxNDYuNzEyIDE5OC40OTNDMTQ2LjU5NiAxOTguMzE2IDE0Ni40ODMgMTk4LjEzOCAxNDYuMzczIDE5Ny45NTdDMTQ2LjMwMiAxOTcuODQ0IDE0Ni4yMzQgMTk3LjczIDE0Ni4xNjYgMTk3LjYxOEwxNDYuMTM4IDE5Ny41NzJDMTQ2LjA3MyAxOTcuNDYyIDE0Ni4wMDkgMTk3LjM1NCAxNDUuOTQ3IDE5Ny4yNDVDMTQ1LjkxMSAxOTcuMTg2IDE0NS44NzcgMTk3LjEyNyAxNDUuODQ1IDE5Ny4wNjZDMTQ1LjgxMiAxOTcuMDA0IDE0NS43NzQgMTk2Ljk0MSAxNDUuNzM5IDE5Ni44NzhMMTQ1LjY4MiAxOTYuNzc5TDE0NS42NDcgMTk2LjcxNUMxNDUuNTggMTk2LjU5NSAxNDUuNTE0IDE5Ni40NzQgMTQ1LjQ1IDE5Ni4zNTJDMTQ1LjQyIDE5Ni4yOTggMTQ1LjM5MSAxOTYuMjQ0IDE0NS4zNiAxOTYuMTkyTDE0NS4yNzEgMTk2LjAxOUwxNDUuMTgxIDE5NS44NDhDMTQ0Ljk1NiAxOTUuMzk4IDE0NC43NDMgMTk0Ljk0MiAxNDQuNTQzIDE5NC40OEwxNDQuNDcyIDE5NC4zMTFDMTQ0LjQyNiAxOTQuMTk4IDE0NC4zODMgMTk0LjA4NiAxNDQuMzM3IDE5My45NzVDMTQ0LjMxNSAxOTMuOTIxIDE0NC4yOTMgMTkzLjg2OCAxNDQuMjc0IDE5My44MTRDMTQ0LjE2NyAxOTMuNTM3IDE0NC4wNjcgMTkzLjI1NyAxNDMuOTc1IDE5Mi45NzVDMTQzLjk0MiAxOTIuODc0IDE0My45MSAxOTIuNzc1IDE0My44OCAxOTIuNjc1QzE0My44MDggMTkyLjQ0OCAxNDMuNzQzIDE5Mi4yMTkgMTQzLjY4NSAxOTEuOTg4QzE0My42MTQgMTkxLjcxOSAxNDMuNTUxIDE5MS40NDggMTQzLjQ5OCAxOTEuMTc1QzE0My40ODcgMTkxLjEyIDE0My40NzYgMTkxLjA2NSAxNDMuNDY3IDE5MS4wMTJDMTQzLjQxNSAxOTAuNzQ1IDE0My4zNzMgMTkwLjQ3NiAxNDMuMzQgMTkwLjIwNkMxNDMuMzMyIDE5MC4xNTMgMTQzLjMyNiAxOTAuMSAxNDMuMzIgMTkwLjA0N0wxNDMuMzAzIDE4OS44ODVDMTQzLjI4MSAxODkuNjczIDE0My4yNjQgMTg5LjQ2IDE0My4yNTQgMTg5LjI0N0MxNDMuMjU0IDE4OS4xOTMgMTQzLjI0OSAxODkuMTM5IDE0My4yNDcgMTg5LjA4N0MxNDMuMjQyIDE4OC45ODEgMTQzLjI0IDE4OC44NzUgMTQzLjIzOSAxODguNzY5QzE0My4xODMgMTg0LjQ5NiAxNDUuMzQ1IDE4MC4zODggMTQ5Ljk2OCAxNzUuNzY3QzE1OC4yMDMgMTY3LjU0IDE2Mi45OTcgMTU1LjUwMSAxNjIuOTk3IDE1NS41MDFDMTYyLjk5NyAxNTUuNTAxIDE2My4xMjYgMTU0Ljk5NiAxNjMuMzk0IDE1NC4yNjlDMTYzLjQzMSAxNTQuMTY4IDE2My40NyAxNTQuMDY0IDE2My41MTQgMTUzLjk1NUMxNjMuNjcgMTUzLjU0OCAxNjMuODQ2IDE1My4xNDggMTY0LjA0MSAxNTIuNzU4TDE2NC4wOCAxNTIuNjgzQzE2NC4yNDYgMTUyLjM1MSAxNjQuNDI4IDE1Mi4wMjcgMTY0LjYyNCAxNTEuNzEyQzE2NC42NyAxNTEuNjM5IDE2NC43MTQgMTUxLjU2NyAxNjQuNzY1IDE1MS40OTRDMTY0LjkxMiAxNTEuMjc3IDE2NS4wNjcgMTUxLjA2NSAxNjUuMjMgMTUwLjg2QzE2NS4zMTkgMTUwLjc0OSAxNjUuNDE2IDE1MC42MzkgMTY1LjUxMyAxNTAuNTMyQzE2NS41NTIgMTUwLjQ5IDE2NS41OSAxNTAuNDQ4IDE2NS42MzEgMTUwLjQwOEMxNjYuMTA4IDE0OS45MTUgMTY2LjY1MyAxNDkuNTEzIDE2Ny4yNyAxNDkuMjk5TDE2Ny4zNDggMTQ5LjI3M0MxNjcuNCAxNDkuMjU2IDE2Ny40NTIgMTQ5LjI0IDE2Ny41MDUgMTQ5LjIyNUMxNjcuNTY2IDE0OS4yMDkgMTY3LjYyNyAxNDkuMTk1IDE2Ny42OSAxNDkuMTgyTDE2Ny43MTkgMTQ5LjE3NkMxNjcuODQ5IDE0OS4xNSAxNjcuOTgxIDE0OS4xMzMgMTY4LjExNCAxNDkuMTI0SDE2OC4xMjVDMTY4LjE5NCAxNDkuMTI0IDE2OC4yNjQgMTQ5LjExNyAxNjguMzM1IDE0OS4xMTdDMTY4LjQyNCAxNDkuMTE3IDE2OC41MDcgMTQ5LjExNyAxNjguNTk0IDE0OS4xMjZDMTY4LjY4NCAxNDkuMTM0IDE2OC43NzMgMTQ5LjE0NCAxNjguODYzIDE0OS4xNThDMTY5LjYwNSAxNDkuMjc2IDE3MC4zMTEgMTQ5LjcxOCAxNzAuOTE5IDE1MC40QzE3MS4xNSAxNTAuNjYgMTcxLjM1OCAxNTAuOTQgMTcxLjU0IDE1MS4yMzZDMTcxLjY2IDE1MS40MjggMTcxLjc3MyAxNTEuNjMxIDE3MS44OCAxNTEuODQ1QzE3MS45MjMgMTUxLjkzNCAxNzEuOTY0IDE1Mi4wMTYgMTcyLjAwNCAxNTIuMTA0QzE3Mi4xMDggMTUyLjMzIDE3Mi4yMDIgMTUyLjU2IDE3Mi4yODQgMTUyLjc5NUMxNzIuNDc5IDE1My4zNDUgMTcyLjYyNiAxNTMuOTExIDE3Mi43MjMgMTU0LjQ4N0MxNzIuODA3IDE1NC45OTIgMTcyLjg1NyAxNTUuNTAyIDE3Mi44NzMgMTU2LjAxM0MxNzIuODgxIDE1Ni4yODYgMTcyLjg4MSAxNTYuNTYzIDE3Mi44NzMgMTU2Ljg0MkMxNzIuODE5IDE1OC4xNCAxNzIuNTUzIDE1OS40MjEgMTcyLjA4NiAxNjAuNjM0QzE3Mi4wNDQgMTYwLjc0NSAxNzEuOTk3IDE2MC44NTcgMTcxLjk1MiAxNjAuOTY5QzE3MS44NiAxNjEuMTk1IDE3MS43NTkgMTYxLjQxNyAxNzEuNjUgMTYxLjYzNEMxNzEuNTY5IDE2MS43OTkgMTcxLjQ4NCAxNjEuOTY1IDE3MS4zOTIgMTYyLjEzQzE3MS4zMzIgMTYyLjI0IDE3MS4yNjkgMTYyLjM1IDE3MS4yMDYgMTYyLjQ2QzE3MS4wNDUgMTYyLjczNCAxNzAuODcxIDE2My4wMDYgMTcwLjY4NCAxNjMuMjc3TDE3MC41NzEgMTYzLjQzOUMxNzAuMTI5IDE2NC4wNTUgMTY5LjYzNyAxNjQuNjMzIDE2OS4wOTkgMTY1LjE2N0MxNjguNTY5IDE2NS42OTggMTY4LjAwMSAxNjYuMTg5IDE2Ny40IDE2Ni42MzdDMTY2Ljc5OCAxNjcuMDgzIDE2Ni4yMzMgMTY3LjU3NyAxNjUuNzExIDE2OC4xMTRDMTY0LjIwOCAxNjkuNjkxIDE2My44NTggMTcxLjA4MyAxNjQuMTk2IDE3Mi4xMzhDMTY0LjI1IDE3Mi4zMDQgMTY0LjMyMSAxNzIuNDY1IDE2NC40MDcgMTcyLjYxN0MxNjQuNTA4IDE3Mi43OTEgMTY0LjYyOCAxNzIuOTUxIDE2NC43NjQgMTczLjA5N0wxNjQuODE3IDE3My4xNTJMMTY0Ljg3MSAxNzMuMjA2QzE2NC45MjUgMTczLjI1OCAxNjQuOTgyIDE3My4zMDkgMTY1LjA0MyAxNzMuMzU5TDE2NS4xMDMgMTczLjQwN0MxNjUuMjQ4IDE3My41MTkgMTY1LjQwMiAxNzMuNjE5IDE2NS41NjMgMTczLjcwN0MxNjUuNjEgMTczLjczMiAxNjUuNjUyIDE3My43NTcgMTY1LjcwNSAxNzMuNzgxQzE2NS44NzkgMTczLjg2NiAxNjYuMDU4IDE3My45MzkgMTY2LjI0MiAxNzMuOTk4QzE2Ni4yOTMgMTc0LjAxNSAxNjYuMzQ0IDE3NC4wMyAxNjYuMzk2IDE3NC4wNDZMMTY2LjQ2MSAxNzQuMDYzTDE2Ni41NTEgMTc0LjA4N0wxNjYuNjI4IDE3NC4xMDZMMTY2LjcxMiAxNzQuMTI0TDE2Ni43OTUgMTc0LjE0MUwxNjYuODc0IDE3NC4xNTRDMTY2LjkzMiAxNzQuMTY0IDE2Ni45OTIgMTc0LjE3NCAxNjcuMDUyIDE3NC4xODFMMTY3LjEwOSAxNzQuMTlMMTY3LjIxMyAxNzQuMkwxNjcuMjc3IDE3NC4yMDdMMTY3LjM4MiAxNzQuMjE0SDE2Ny40NDRMMTY3LjU1NCAxNzQuMjJIMTY3LjlMMTY3Ljk5OSAxNzQuMjE0TDE2OC4xMTMgMTc0LjIwN0wxNjguMjUyIDE3NC4xOTRMMTY4LjM4MiAxNzQuMTc5QzE2OC40MTIgMTc0LjE3OSAxNjguNDQyIDE3NC4xNzEgMTY4LjQ3MiAxNzQuMTY1QzE2OC44NzIgMTc0LjEwNyAxNjkuMjY0IDE3NC4wMDEgMTY5LjYzOSAxNzMuODQ5TDE2OS43OTggMTczLjc4MkMxNjkuODg3IDE3My43NDMgMTY5Ljk3NyAxNzMuNzAyIDE3MC4wNTkgMTczLjY1OEMxNzAuMjM1IDE3My41NyAxNzAuNDA2IDE3My40NyAxNzAuNTcgMTczLjM2MUMxNzAuNzk5IDE3My4yMTEgMTcxLjAxNSAxNzMuMDQzIDE3MS4yMTcgMTcyLjg1OEMxNzEuMjY1IDE3Mi44MTUgMTcxLjMxMiAxNzIuNzY5IDE3MS4zNTggMTcyLjcyNUMxNzEuMzgxIDE3Mi43MDMgMTcxLjQwMyAxNzIuNjgyIDE3MS40MjUgMTcyLjY1OEMxNzEuNDY5IDE3Mi42MTMgMTcxLjUxNCAxNzIuNTY5IDE3MS41NTggMTcyLjUyQzE3MS44NzggMTcyLjE2OCAxNzIuMTU1IDE3MS43OCAxNzIuMzgzIDE3MS4zNjNDMTc0LjM0IDE2Ny44MDQgMTc2LjM5MSAxNjQuMjk4IDE3OC41MzQgMTYwLjg0OUwxNzguODI4IDE2MC4zNzhMMTc5LjEyNSAxNTkuOTA3QzE3OS4yNzMgMTU5LjY2OCAxNzkuNDIzIDE1OS40MzMgMTc5LjU3MiAxNTkuMTk5TDE3OS43MjIgMTU4Ljk2NUMxODAuMjIgMTU4LjE4NSAxODAuNzI2IDE1Ny40MSAxODEuMjQxIDE1Ni42NDFMMTgxLjU0NiAxNTYuMTg1QzE4Mi4xNTggMTU1LjI3OCAxODIuNzY4IDE1NC4zOTYgMTgzLjM3MyAxNTMuNTU4TDE4My42NzQgMTUzLjE0M0MxODQuMzMyIDE1Mi4yMzYgMTg1LjAxNyAxNTEuMzQ4IDE4NS43MjggMTUwLjQ4MkwxODYuMDEgMTUwLjE0NEMxODYuMDU3IDE1MC4wODggMTg2LjEgMTUwLjAzMiAxODYuMTUxIDE0OS45NzhDMTg2LjI0NCAxNDkuODY4IDE4Ni4zMzcgMTQ5Ljc2MSAxODYuNDI4IDE0OS42NTdDMTg2LjQ3NCAxNDkuNjA0IDE4Ni41MTcgMTQ5LjU1MiAxODYuNTY2IDE0OS41TDE4Ni44MzQgMTQ5LjE5OEwxODYuOTY4IDE0OS4wNTFDMTg3LjEwMyAxNDguOTA2IDE4Ny4yMzUgMTQ4Ljc2NyAxODcuMzY1IDE0OC42MzRDMTg3LjQ1NSAxNDguNTQ0IDE4Ny41MzggMTQ4LjQ1NSAxODcuNjI0IDE0OC4zNzFDMTg4LjEzMSAxNDcuODUzIDE4OC42OSAxNDcuMzg4IDE4OS4yOTMgMTQ2Ljk4NUwxODkuNDMzIDE0Ni44OTVDMTg5LjU2NyAxNDYuODA1IDE4OS43MDYgMTQ2LjcyMSAxODkuODQ4IDE0Ni42NDVDMTkyLjIxMiAxNDUuMzAzIDE5NC4xNjkgMTQ1LjIwNCAxOTUuMjk2IDE0Ni4zMzFDMTk1Ljk3OCAxNDcuMDEzIDE5Ni4zNTYgMTQ4LjE0NCAxOTYuMzM1IDE0OS43MThDMTk2LjMzNSAxNDkuNzg3IDE5Ni4zMzUgMTQ5Ljg1NyAxOTYuMzMgMTQ5LjkyOVYxNTAuMDA2QzE5Ni4zMyAxNTAuMDc4IDE5Ni4zMjQgMTUwLjE1IDE5Ni4zMTggMTUwLjIyM0MxOTYuMzE4IDE1MC4zMTMgMTk2LjMwOCAxNTAuNDAyIDE5Ni4yOTkgMTUwLjQ5MkMxOTYuMjkgMTUwLjU4MSAxOTYuMjg1IDE1MC42NDkgMTk2LjI3NiAxNTAuNzI5QzE5Ni4yNzYgMTUwLjc1MSAxOTYuMjcyIDE1MC43NzQgMTk2LjI2OCAxNTAuNzk4QzE5Ni4yNjIgMTUwLjg2NyAxOTYuMjUzIDE1MC45MzggMTk2LjI0MyAxNTEuMDA5QzE5Ni4yNDMgMTUxLjAzIDE5Ni4yNDMgMTUxLjA1MiAxOTYuMjM1IDE1MS4wNzRDMTk2LjIyNCAxNTEuMTY5IDE5Ni4yMSAxNTEuMjYzIDE5Ni4xOTQgMTUxLjM1N0MxOTYuMTgzIDE1MS40NDcgMTk2LjE2OCAxNTEuNTMxIDE5Ni4xNTIgMTUxLjYxOUwxOTYuMTI2IDE1MS43NjhDMTk2LjEgMTUxLjkxIDE5Ni4wNjcgMTUyLjA1IDE5Ni4wMjYgMTUyLjE4OEMxOTUuOTQ4IDE1Mi40NDcgMTk1Ljg1NCAxNTIuNyAxOTUuNzQzIDE1Mi45NDZDMTk1LjU4OCAxNTMuMjg0IDE5NS40MTcgMTUzLjYxMyAxOTUuMjI5IDE1My45MzNDMTk1LjEyNSAxNTQuMTExIDE5NS4wMTggMTU0LjI4NiAxOTQuOTA3IDE1NC40NTlDMTk0Ljc5MyAxNTQuNjM4IDE5NC42NzMgMTU0LjgxOSAxOTQuNTQ5IDE1NS4wMDJDMTk0LjIzMyAxNTUuNDU0IDE5My45MDUgMTU1Ljg5NyAxOTMuNTY0IDE1Ni4zM0wxOTMuNDA4IDE1Ni41MjdDMTkyLjg1MiAxNTcuMjIgMTkyLjI3OCAxNTcuODk5IDE5MS42ODYgMTU4LjU2MkwxOTEuNDk5IDE1OC43NzJDMTkxLjI0NyAxNTkuMDUzIDE5MC45OTEgMTU5LjMzNiAxOTAuNzI5IDE1OS42MkwxOTAuNTMyIDE1OS44MzRDMTkwLjQwMSAxNTkuOTc3IDE5MC4yNjQgMTYwLjEyIDE5MC4xMzIgMTYwLjI2NEMxOTAuMDAxIDE2MC40MDcgMTg5Ljg2NCAxNjAuNTUyIDE4OS43MjYgMTYwLjY5N0wxODkuMzE1IDE2MS4xM0wxODguODk4IDE2MS41NjZMMTg4LjQ3OCAxNjIuMDAyQzE4OC4xOTYgMTYyLjI5NCAxODcuOTEzIDE2Mi41ODYgMTg3LjYyOCAxNjIuODc4QzE4My41NzMgMTY3LjAzNyAxNzkuMzAxIDE3MS4xODIgMTc3Ljg1NSAxNzMuNzY2QzE3Ny43NTggMTczLjkzNCAxNzcuNjcxIDE3NC4xMDggMTc3LjU5MyAxNzQuMjg1QzE3Ny4zODcgMTc0Ljc1NSAxNzcuMzAxIDE3NS4xNTcgMTc3LjM2IDE3NS40ODJDMTc3LjM3OSAxNzUuNTg5IDE3Ny40MTYgMTc1LjY5MSAxNzcuNDcxIDE3NS43ODVDMTc3LjU1MiAxNzUuOTI2IDE3Ny42NTEgMTc2LjA1NiAxNzcuNzY2IDE3Ni4xNzJDMTc3LjgxOSAxNzYuMjI0IDE3Ny44NzUgMTc2LjI3MiAxNzcuOTM0IDE3Ni4zMTZDMTc4LjIzMiAxNzYuNTI4IDE3OC41OTEgMTc2LjYzNyAxNzguOTU3IDE3Ni42MjdIMTc5LjA3MUwxNzkuMTg4IDE3Ni42MThMMTc5LjMwNSAxNzYuNjA1TDE3OS40MDIgMTc2LjU5MUMxNzkuNDE1IDE3Ni41ODkgMTc5LjQyOSAxNzYuNTg3IDE3OS40NDIgMTc2LjU4M0wxNzkuNTMxIDE3Ni41NjZMMTc5LjU1NCAxNzYuNTYxTDE3OS42NTMgMTc2LjU0TDE3OS42ODggMTc2LjUzMUMxNzkuNzIzIDE3Ni41MjIgMTc5Ljc1NyAxNzYuNTEzIDE3OS43OTIgMTc2LjUwM0MxNzkuODI3IDE3Ni40OTMgMTc5Ljg3NSAxNzYuNDggMTc5LjkxNyAxNzYuNDY2QzE4MC4wOTMgMTc2LjQxMyAxODAuMjY1IDE3Ni4zNSAxODAuNDM0IDE3Ni4yNzhDMTgwLjUyMyAxNzYuMjQyIDE4MC42MSAxNzYuMjAzIDE4MC42OTYgMTc2LjE2MUMxODAuNzQxIDE3Ni4xNDEgMTgwLjc4NiAxNzYuMTIgMTgwLjgyOCAxNzYuMDk4TDE4MC45NjIgMTc2LjAzMkMxODEuMjgyIDE3NS44NjYgMTgxLjU5NCAxNzUuNjg1IDE4MS44OTggMTc1LjQ5MUwxODIuMDMxIDE3NS40MDFDMTgyLjA3NiAxNzUuMzczIDE4Mi4xMjEgMTc1LjM0NCAxODIuMTY0IDE3NS4zMTJMMTgyLjI5NyAxNzUuMjIzTDE4Mi4zNjggMTc1LjE3NEwxODIuNTYgMTc1LjAzOUMxODIuNzM5IDE3NC45MTYgMTgyLjkwNiAxNzQuNzg5IDE4My4wNzUgMTc0LjY2TDE4My4wOSAxNzQuNjQ4TDE4My4zNTkgMTc0LjQ0QzE4My43MjYgMTc0LjE1IDE4NC4wNzQgMTczLjg1OCAxODQuMzkgMTczLjU4M0wxODQuNiAxNzMuMzk5TDE4NC42MTkgMTczLjM4MUwxODQuNzI5IDE3My4yODRDMTg0Ljk4NyAxNzMuMDUyIDE4NS4yMTcgMTcyLjgzNiAxODUuNDA4IDE3Mi42NThMMTg1LjQ4NyAxNzIuNTgxQzE4NS41NTYgMTcyLjUxNiAxODUuNjE5IDE3Mi40NTUgMTg1LjY3NiAxNzIuNDAzTDE4NS43ODggMTcyLjI5MkwxODUuODI4IDE3Mi4yNTNMMTg1LjgzOSAxNzIuMjQyTDE4NS45NTYgMTcyLjEyNUwxODYuMDMgMTcyLjA0OEwxODYuMDM5IDE3Mi4wNDFMMTg2LjA3NCAxNzIuMDA5TDE4Ni4xMTggMTcxLjk2OUwxODYuMTMyIDE3MS45NTZMMTg2LjE2OSAxNzEuOTIyTDE4Ni4zNzMgMTcxLjc0M0wxODYuNDg3IDE3MS42NDFDMTg2LjU0OCAxNzEuNTg4IDE4Ni42MDcgMTcxLjUzNCAxODYuNjY2IDE3MS40NzlMMTg2LjgwMiAxNzEuMzU4QzE4Ni44MjcgMTcxLjMzOCAxODYuODUxIDE3MS4zMTYgMTg2Ljg3NiAxNzEuMjk0TDE4Ny4wMTkgMTcxLjE2OUwxODcuMjI5IDE3MC45ODRMMTg3LjM0MSAxNzAuODg3QzE4Ny43NzYgMTcwLjUwOSAxODguMzA1IDE3MC4wNTIgMTg4LjkxMyAxNjkuNTM3TDE4OS4xNjIgMTY5LjMyNkwxODkuNTczIDE2OC45ODFMMTg5Ljk5NCAxNjguNjNDMTkwLjU0NCAxNjguMTczIDE5MS4xMzYgMTY3LjY4OCAxOTEuNzYyIDE2Ny4xODVMMTkyLjE3MyAxNjYuODU1QzE5Mi41MjMgMTY2LjU3NiAxOTIuODgyIDE2Ni4yOTIgMTkzLjI0NiAxNjYuMDA2QzE5My4zOTMgMTY1Ljg5MSAxOTMuNTQyIDE2NS43NzYgMTkzLjY5NCAxNjUuNjYyQzE5NC4wNjYgMTY1LjM3MyAxOTQuNDQgMTY1LjA4NiAxOTQuODE3IDE2NC44MDNDMTk1LjY3NSAxNjQuMTU1IDE5Ni41NiAxNjMuNTA2IDE5Ny40NTYgMTYyLjg3NEwxOTcuODQgMTYyLjYwNkMxOTguMTA5IDE2Mi40MjEgMTk4LjM3NyAxNjIuMjM1IDE5OC42NDUgMTYyLjA1NEwxOTguODg4IDE2MS44OUMxOTkuMzY3IDE2MS41NjUgMTk5Ljg1MyAxNjEuMjQ4IDIwMC4zNDMgMTYwLjkzOUwyMDAuNTg2IDE2MC43ODZMMjAwLjgyNyAxNjAuNjM2QzIwMS4wNjkgMTYwLjQ4NiAyMDEuMzA5IDE2MC4zMzkgMjAxLjU0OCAxNjAuMTk2TDIwMS43ODcgMTYwLjA1M0wyMDIuMjY1IDE1OS43NzVMMjAyLjczNCAxNTkuNTA2TDIwMi44MjkgMTU5LjQ1NEwyMDMuMiAxNTkuMjVDMjAzLjM1NSAxNTkuMTY2IDIwMy41MDkgMTU5LjA4NSAyMDMuNjYzIDE1OS4wMDZMMjAzLjg5MiAxNTguODg4TDIwNC4xMTUgMTU4Ljc3NkMyMDQuMTkzIDE1OC43MzkgMjA0LjI3IDE1OC43IDIwNC4zNDYgMTU4LjY2M0MyMDQuODQ4IDE1OC40MTUgMjA1LjM2IDE1OC4xODcgMjA1Ljg4IDE1Ny45NzlDMjA2LjAyMSAxNTcuOTE5IDIwNi4xNjEgMTU3Ljg2NSAyMDYuMyAxNTcuODE4TDIwNi43MSAxNTcuNjc0QzIwNi44MzMgMTU3LjYzMyAyMDYuOTUzIDE1Ny41OTQgMjA3LjA2OCAxNTcuNTU5TDIwNy4xMDggMTU3LjU0N0MyMDcuMTcgMTU3LjUyNyAyMDcuMjMyIDE1Ny41MDkgMjA3LjI5MyAxNTcuNDkzTDIwNy4zMTEgMTU3LjQ4OEMyMDcuNDM5IDE1Ny40NTEgMjA3LjU2NiAxNTcuNDE5IDIwNy42OTEgMTU3LjM4OUgyMDcuN0MyMDguMDU0IDE1Ny4zMDQgMjA4LjQxNCAxNTcuMjQzIDIwOC43NzcgMTU3LjIwNkMyMDguOTQ0IDE1Ny4xODkgMjA5LjExMSAxNTcuMTggMjA5LjI3OSAxNTcuMTgxSDIwOS4zNjNDMjA5LjQ3NSAxNTcuMTgxIDIwOS41ODMgMTU3LjE4OCAyMDkuNjkgMTU3LjE5OUMyMDkuNzM5IDE1Ny4xOTkgMjA5Ljc4OCAxNTcuMjA5IDIwOS44MzYgMTU3LjIxNUgyMDkuODU2QzIwOS45MDQgMTU3LjIyMSAyMDkuOTUyIDE1Ny4yMjggMjEwIDE1Ny4yMzlDMjEwLjA0NyAxNTcuMjQ4IDIxMC4wOTUgMTU3LjI1NiAyMTAuMTQxIDE1Ny4yNjdIMjEwLjE1NkMyMTAuMjAzIDE1Ny4yNzcgMjEwLjI0NSAxNTcuMjg5IDIxMC4yOTQgMTU3LjMwM0MyMTAuNTQ4IDE1Ny4zNzQgMjEwLjc5IDE1Ny40ODQgMjExLjAxMiAxNTcuNjI4QzIxMS4xMjEgMTU3LjY5OSAyMTEuMjIzIDE1Ny43NzkgMjExLjMxNyAxNTcuODY4TDIxMS4zNDQgMTU3Ljg5NEMyMTEuMzYyIDE1Ny45MSAyMTEuMzc5IDE1Ny45MjcgMjExLjM5NSAxNTcuOTQ0TDIxMS40NDQgMTU3Ljk5N0MyMTEuODQ2IDE1OC40MTggMjEyLjE3OCAxNTguOTAxIDIxMi40MjggMTU5LjQyN0wyMTIuNDY2IDE1OS41MTdDMjEyLjU1MSAxNTkuNzE3IDIxMi42MTggMTU5LjkyNCAyMTIuNjY2IDE2MC4xMzVDMjEyLjgwOCAxNjAuNzgxIDIxMi43NTMgMTYxLjQ1NSAyMTIuNTA4IDE2Mi4wN0MyMTIuNDE1IDE2Mi4zMTggMjEyLjMwMiAxNjIuNTU3IDIxMi4xNjkgMTYyLjc4NUMyMTEuODU4IDE2My4zMDkgMjExLjQ4OSAxNjMuNzk2IDIxMS4wNyAxNjQuMjM3TDIxMC45ODEgMTY0LjMzMkMyMTAuODQ4IDE2NC40NzIgMjEwLjcxIDE2NC42MTIgMjEwLjU2NSAxNjQuNzUyQzIxMC41MDEgMTY0LjgxNSAyMTAuNDM0IDE2NC44NzcgMjEwLjM2NyAxNjQuOTRMMjEwLjE2MiAxNjUuMTI5TDIxMC4wNTUgMTY1LjIyNEMyMDkuNzk3IDE2NS40NTQgMjA5LjUzMiAxNjUuNjc3IDIwOS4yNjMgMTY1Ljg5M0MyMDkuMSAxNjYuMDI1IDIwOC45MzYgMTY2LjE1NCAyMDguNzcgMTY2LjI4MUMyMDguMTg0IDE2Ni43MjkgMjA3LjU4NyAxNjcuMTYxIDIwNi45NzkgMTY3LjU3OEMyMDYuNjEyIDE2Ny44MyAyMDYuMjQyIDE2OC4wNzcgMjA1Ljg2OSAxNjguMzIxQzIwNC45NSAxNjguOTI0IDIwNC4wMjEgMTY5LjUxMiAyMDMuMDgzIDE3MC4wODRDMjAxLjExNSAxNzEuMjk0IDE5OC45MzQgMTcyLjU4OCAxOTYuNjA5IDE3My45OTVMMTk2LjAwNyAxNzQuMzZDMTk1LjM0OCAxNzQuNzYyIDE5NC43MjYgMTc1LjE0NiAxOTQuMTQgMTc1LjUxMkwxOTMuODQ1IDE3NS42OTdMMTkzLjI4NyAxNzYuMDU1QzE5Mi45MTcgMTc2LjI5MiAxOTIuNTQ4IDE3Ni41MzEgMTkyLjE3OSAxNzYuNzdMMTkxLjg4MiAxNzYuOTY2QzE5MS43MzcgMTc3LjA2IDE5MS41OTMgMTc3LjE1NiAxOTEuNDQ5IDE3Ny4yNTJMMTkxLjMwOCAxNzcuMzQyTDE5MC44NzYgMTc3LjYzM0wxOTAuNjQ3IDE3Ny43OUwxOTAuMzc5IDE3Ny45NzZMMTkwLjEzIDE3OC4xNDlDMTg5LjcxMyAxNzguNDQ0IDE4OS4zMjUgMTc4LjcyNSAxODguOTY4IDE3OC45OTJMMTg4LjgzNCAxNzkuMDk0QzE4OC42MjQgMTc5LjI1MyAxODguNDE2IDE3OS40MTUgMTg4LjIxMSAxNzkuNThDMTg3LjkwMiAxNzkuODI5IDE4Ny42MiAxODAuMDY3IDE4Ny4zNjcgMTgwLjI5NkwxODcuMjQzIDE4MC40MDlDMTg3LjE3MiAxODAuNDc0IDE4Ny4xMDIgMTgwLjUzOSAxODcuMDM1IDE4MC42MDNDMTg2Ljk4OSAxODAuNjQ4IDE4Ni45NDYgMTgwLjY5MyAxODYuODk4IDE4MC43MzZMMTg2LjgzNCAxODAuOEMxODYuNjkxIDE4MC45NDQgMTg2LjU1MSAxODEuMDkxIDE4Ni40MTYgMTgxLjI0MkwxODYuMzUgMTgxLjMxOEMxODYuMjAzIDE4MS40ODggMTg2LjA3NSAxODEuNjUxIDE4NS45NjMgMTgxLjgxTDE4NS45MTMgMTgxLjg4MUMxODUuODI1IDE4Mi4wMDkgMTg1Ljc0NCAxODIuMTQxIDE4NS42NzEgMTgyLjI3N0MxODUuNjUyIDE4Mi4zMTEgMTg1LjYzNSAxODIuMzQ1IDE4NS42MTggMTgyLjM3OUwxODUuNTY5IDE4Mi40ODFMMTg1LjUzNiAxODIuNTU1TDE4NS41MTUgMTgyLjYwNUwxODUuNDk4IDE4Mi42NUwxODUuNDc1IDE4Mi43MTFDMTg1LjQxMyAxODIuODggMTg1LjM3IDE4My4wNTYgMTg1LjM0NSAxODMuMjM0TDE4NS4zMzcgMTgzLjI5NkwxODUuMzMxIDE4My4zNTRWMTgzLjY2OUMxODUuMzMxIDE4My42OTUgMTg1LjMzMSAxODMuNzIxIDE4NS4zMzggMTgzLjc0OUwxODUuMzQzIDE4My43OTdDMTg1LjM0MyAxODMuODIzIDE4NS4zNDkgMTgzLjg0OCAxODUuMzUzIDE4My44NzZDMTg1LjM1NyAxODMuOTAyIDE4NS4zNjQgMTgzLjk0OSAxODUuMzcyIDE4My45ODZWMTgzLjk5MUMxODUuMzc5IDE4NC4wMjYgMTg1LjM4NiAxODQuMDYgMTg1LjM5NSAxODQuMDk1QzE4NS40MDQgMTg0LjEzIDE4NS40MTMgMTg0LjE3IDE4NS40MjQgMTg0LjIwNkMxODUuNDQzIDE4NC4yNzcgMTg1LjQ2NyAxODQuMzQ3IDE4NS40OTIgMTg0LjQxN0MxODUuNTA4IDE4NC40NTkgMTg1LjUyMyAxODQuNSAxODUuNTQgMTg0LjU0MUMxODUuNTQgMTg0LjU0OSAxODUuNTQ2IDE4NC41NTggMTg1LjU1IDE4NC41NjZMMTg1LjU4NiAxODQuNjQ3TDE4NS42MzYgMTg0Ljc1OEMxODUuNjkgMTg0Ljg3MyAxODUuNzQ5IDE4NC45ODUgMTg1LjgxMyAxODUuMDk0TDE4NS44NzkgMTg1LjIwOEwxODUuOTQ3IDE4NS4zMjJDMTg1Ljk1OSAxODUuMzQxIDE4NS45NzMgMTg1LjM1OSAxODUuOTg4IDE4NS4zNzZMMTg2LjAxIDE4NS4zOTlMMTg2LjAzNSAxODUuNDIyTDE4Ni4wNjEgMTg1LjQ0MkMxODYuMDk5IDE4NS40NjkgMTg2LjE0IDE4NS40OSAxODYuMTgzIDE4NS41MDVDMTg2LjIwNiAxODUuNTEzIDE4Ni4yMyAxODUuNTE5IDE4Ni4yNTQgMTg1LjUyNUMxODYuODMxIDE4NS42NTUgMTg4LjAxNyAxODUuMTc4IDE4OS41OTMgMTg0LjM0NkMxODkuNjgyIDE4NC4yOTggMTg5Ljc4IDE4NC4yNDggMTg5Ljg3NSAxODQuMTk2TDE5MC4zNTUgMTgzLjkzNEwxOTAuNTg5IDE4My44MDRDMTkwLjc1NiAxODMuNzE1IDE5MC45MjYgMTgzLjYxNCAxOTEuMSAxODMuNTE1TDE5MS40MTcgMTgzLjMzNkMxOTMuNSAxODIuMTM3IDE5NS45ODggMTgwLjU5NyAxOTguNTYgMTc5LjA5M0MxOTguODAxIDE3OC45NTIgMTk5LjA0MyAxNzguODExIDE5OS4yODUgMTc4LjY3MkwxOTkuNzcxIDE3OC4zNjFDMjAwLjMzNSAxNzguMDM4IDIwMC45MDIgMTc3LjcxOSAyMDEuNDcxIDE3Ny40MDRDMjAyLjE4OCAxNzcuMDEgMjAyLjkxIDE3Ni42MjYgMjAzLjYzOSAxNzYuMjU0TDIwNC4xMTUgMTc2LjAxM0MyMDQuNDMxIDE3NS44NTcgMjA0Ljc0NCAxNzUuNzA1IDIwNS4wNTMgMTc1LjU1N0MyMDUuNjUxIDE3NS4yNzMgMjA2LjI1NiAxNzUuMDAzIDIwNi44NjggMTc0Ljc0OEwyMDcuMjAzIDE3NC42MTJMMjA3LjI0MyAxNzQuNTk2QzIwOS4wMTggMTczLjg5MyAyMTAuNjI3IDE3My40NTkgMjExLjkyOSAxNzMuNDU5QzIxMi4yMSAxNzMuNDU2IDIxMi40OTIgMTczLjQ4IDIxMi43NjkgMTczLjUyOEgyMTIuNzc4QzIxMi44NjcgMTczLjU0NCAyMTIuOTQ4IDE3My41NjIgMjEzLjAzMSAxNzMuNTgySDIxMy4wNDZDMjEzLjI1OSAxNzMuNjM2IDIxMy40NjYgMTczLjcxMyAyMTMuNjYyIDE3My44MTJDMjEzLjkzNyAxNzMuOTU0IDIxNC4xODQgMTc0LjE0MyAyMTQuMzkzIDE3NC4zNzFDMjE0LjQ4OSAxNzQuNDc3IDIxNC41NzQgMTc0LjU5MiAyMTQuNjQ5IDE3NC43MTRDMjE0Ljc4OSAxNzQuOTI5IDIxNC44OTkgMTc1LjE2MiAyMTQuOTc4IDE3NS40MDZDMjE1LjAxIDE3NS41MDEgMjE1LjAzOCAxNzUuNTk0IDIxNS4wNjcgMTc1LjY5M0MyMTUuMjc4IDE3Ni40NSAyMTUuMjU3IDE3Ny4yNTMgMjE1LjAwNyAxNzcuOTk4WiIvPiYjeGE7PHBhdGggZmlsbD0iI0ZGRDIxRSIgZD0iTTIwMy4yMSAxMjMuNjg1VjEyMy4xOTRDMjAzLjIxIDgxLjM0IDE2OS4yOTIgNDcuNDExIDEyNy40MzUgNDcuNDExQzg1LjU3OTEgNDcuNDExIDUxLjY0OCA4MS4zNDIgNTEuNjQ4IDEyMy4xOTRWMTIzLjM1OEM1MS42NDYgMTIzLjQ2NyA1MS42NDUgMTIzLjU3NiA1MS42NDggMTIzLjY4NUM1MS42NTI5IDEyMy44NDggNTEuNjU0NiAxMjQuMDExIDUxLjY1MyAxMjQuMTc0TDUxLjY1ODEgMTI0LjUzNEw1MS42NjEgMTI0LjY2M0M1MS42NjEgMTI0LjcyMyA1MS42NjMxIDEyNC43ODIgNTEuNjY1MSAxMjQuODQyQzUxLjY2ODEgMTI0LjkzNyA1MS42NyAxMjUuMDMzIDUxLjY3IDEyNS4xMjhMNTEuNjgxIDEyNS41MTdMNTEuNjk3IDEyNS45NzRMNTEuNzAyIDEyNi4xMjRMNTEuNzIyIDEyNi41OTdWMTI2LjYyQzUxLjczIDEyNi44MDUgNTEuNzQwMSAxMjYuOTg5IDUxLjc0OTEgMTI3LjE3M0w1MS43NSAxMjcuMTg3QzUxLjc2IDEyNy4zNzUgNTEuNzcwMSAxMjcuNTY0IDUxLjc4MjEgMTI3Ljc1M0M1MS43OTIxIDEyNy45MjcgNTEuODAyIDEyOC4xMDEgNTEuODE1IDEyOC4yNzVMNTEuODE3MSAxMjguMzA2QzUxLjgyNTggMTI4LjQ1NSA1MS44MzU4IDEyOC42MDUgNTEuODQ3IDEyOC43NTRMNTEuODUgMTI4Ljc5NEw1MS44ODMgMTI5LjIyNkw1MS44ODYxIDEyOS4yNTRDNTEuODkyMSAxMjkuMzM4IDUxLjg5OCAxMjkuNDIyIDUxLjkwNiAxMjkuNTAzQzUxLjk2NTggMTMwLjIyNCA1Mi4wMzU1IDEzMC45NDUgNTIuMTE1MSAxMzEuNjY0TDUyLjEyIDEzMS43MDlMNTIuMTgxIDEzMi4yMzhMNTIuMjQ5MSAxMzIuNzkzTDUyLjI5OSAxMzMuMTdMNTIuMzIyIDEzMy4zNDdDNTIuMzc1MyAxMzMuNzU1IDUyLjQzMyAxMzQuMTYyIDUyLjQ5NSAxMzQuNTY4TDUyLjQ5OTEgMTM0LjU5NUw1Mi41NTggMTM0Ljk3OUM1Mi44NDM1IDEzNi44MDggNTMuMTk3MSAxMzguNjI2IDUzLjYxOCAxNDAuNDI5TDUzLjYyMzEgMTQwLjQ1MUw1My42NTUgMTQwLjU4Nkw1My43NDYgMTQwLjk3MUw1My44MDIgMTQwLjkwNEM1Ni4wMDIgMTM4LjI3NCA1OS4xNTggMTM2LjgyNCA2Mi42ODkgMTM2LjgyNEM2NS41MTkgMTM2LjgyNCA2OC40MjIxIDEzNy43NiA3MS4zMzIxIDEzOS42MDVDNzMuMjYyMSAxNDAuODMxIDc1LjM5NjEgMTQzLjAwMiA3Ny41OTIxIDE0NS43MzNDNzkuNjI0MSAxNDIuOTExIDgyLjQ3MjEgMTQxLjAzNSA4NS43MzAxIDE0MC41MjNDODYuMzUxMyAxNDAuNDI1IDg2Ljk3OTIgMTQwLjM3NiA4Ny42MDgxIDE0MC4zNzVDOTUuMDQ0MSAxNDAuMzc1IDk5LjUyMyAxNDYuODI4IDEwMS4yMTUgMTUyLjYzM0MxMDIuMDUxIDE1NC41OTQgMTA2LjA4IDE2My41MjYgMTEyLjE1NiAxNjkuNTY4QzEyMS4zOTIgMTc4Ljc5NSAxMjMuNzAzIDE4OC4zMTYgMTE5LjEzMiAxOTguNTExSDExOS4xNDhDMTE5LjQ1OSAxOTguNTQ2IDExOS43NzIgMTk4LjU3OCAxMjAuMDg3IDE5OC42MDdDMTIwLjI3NCAxOTguNjI1IDEyMC40NiAxOTguNjQzIDEyMC42NDggMTk4LjY1OUwxMjAuNzE0IDE5OC42NjVMMTIxLjEyNyAxOTguN0wxMjEuNTA3IDE5OC43M0MxMjEuODY5IDE5OC43NTggMTIyLjIzMiAxOTguNzg0IDEyMi41OTYgMTk4LjgwN0wxMjIuODg1IDE5OC44MjRMMTIzLjExNCAxOTguODM4TDEyMy4yNTYgMTk4Ljg0NkwxMjMuNzAzIDE5OC44NjlMMTIzLjgyNSAxOTguODc0TDEyNC4yOTQgMTk4Ljg5NUwxMjQuODE2IDE5OC45MTVMMTI1LjIzNSAxOTguOTI3TDEyNS4zMDUgMTk4LjkyOUMxMjUuMzk0IDE5OC45MzMgMTI1LjQ4MyAxOTguOTM2IDEyNS41NzIgMTk4LjkzNkwxMjUuNjY4IDE5OC45MzlDMTI2LjI1OCAxOTguOTUzIDEyNi44NDcgMTk4Ljk2IDEyNy40MzcgMTk4Ljk1OUgxMjguMDYzTDEyOC41MSAxOTguOTU0QzEyOC42MiAxOTguOTQ5IDEyOC43MjkgMTk4Ljk0OSAxMjguODQgMTk4Ljk0OUgxMjkuMDE0TDEyOS4xNjUgMTk4Ljk0NUMxMjkuMjI0IDE5OC45NDMgMTI5LjI4MyAxOTguOTQxIDEyOS4zNDMgMTk4Ljk0MUgxMjkuNTIyTDEyOS44NzMgMTk4LjkzMkwxMzAuNDAxIDE5OC45MTRMMTMwLjk4MiAxOTguODg4QzEzMS4xNSAxOTguODgyIDEzMS4zMTYgMTk4Ljg3MyAxMzEuNDgyIDE5OC44NjVMMTMxLjY2MSAxOTguODU0TDEzMS45MjcgMTk4Ljg0TDEzMi4wODMgMTk4LjgzMUwxMzIuMjAxIDE5OC44MjNMMTMyLjczOCAxOTguNzg4TDEzMy4yNzQgMTk4Ljc0OUwxMzMuNzYxIDE5OC43MUwxMzQuMTAzIDE5OC42ODFMMTM0LjQ3OSAxOTguNjQ3QzEzNS4xMDcgMTk4LjU5MSAxMzUuNzMzIDE5OC41MjUgMTM2LjM1OSAxOTguNDVMMTM2Ljc4NiAxOTguMzk5QzEzMi4yODcgMTg4LjI0NyAxMzQuNjE2IDE3OC43NjcgMTQzLjgxMyAxNjkuNTc3QzE0OS44NzYgMTYzLjUxOSAxNTMuOTA1IDE1NC41ODcgMTU0Ljc0NSAxNTIuNjI1QzE1Ni40MzggMTQ2LjgyMSAxNjAuOTE0IDE0MC4zNjggMTY4LjM1MiAxNDAuMzY4QzE2OC45ODEgMTQwLjM2OCAxNjkuNjEgMTQwLjQxOCAxNzAuMjMxIDE0MC41MTZDMTczLjQ4NiAxNDEuMDI4IDE3Ni4zMzQgMTQyLjkwNCAxNzguMzY5IDE0NS43MjZDMTgwLjU2NiAxNDIuOTk2IDE4Mi42OTkgMTQwLjgyMyAxODQuNjMgMTM5LjU5N0MxODcuNTM5IDEzNy43NTMgMTkwLjQ0NSAxMzYuODE3IDE5My4yNzIgMTM2LjgxN0MxOTYuMzg4IDEzNi44MTcgMTk5LjIxMiAxMzcuOTQ3IDIwMS4zNDUgMTQwLjAyQzIwMS4zODQgMTM5Ljg1MSAyMDEuNDIyIDEzOS42ODIgMjAxLjQ1OSAxMzkuNTEyTDIwMS41NjggMTM5LjAwNkMyMDEuNjA3IDEzOC44MjEgMjAxLjY0NiAxMzguNjM2IDIwMS42ODMgMTM4LjQ1MUMyMDEuNzQ5IDEzOC4xMjQgMjAxLjgxNSAxMzcuNzk3IDIwMS44NzggMTM3LjQ2N0MyMDEuOTQ0IDEzNy4xMjUgMjAyLjAwNyAxMzYuNzgxIDIwMi4wNjcgMTM2LjQzN0wyMDIuMDk4IDEzNi4yNTFDMjAyLjExNyAxMzYuMTQxIDIwMi4xMzUgMTM2LjAzMSAyMDIuMTU2IDEzNS45MkMyMDIuMTkgMTM1Ljc0OCAyMDIuMjE4IDEzNS41NzYgMjAyLjI0NiAxMzUuNDAyTDIwMi4yNTcgMTM1LjMzNkwyMDIuMzI4IDEzNC44ODNMMjAyLjM5OCAxMzQuNDI0VjEzNC40MkMyMDIuNDQ5IDEzNC4wODEgMjAyLjQ5NyAxMzMuNzQyIDIwMi41NDIgMTMzLjQwM0wyMDIuNTUzIDEzMy4zMTlMMjAyLjYxNiAxMzIuODQxTDIwMi42NjcgMTMyLjQzM0wyMDIuNzU3IDEzMS42MjlMMjAyLjc5MiAxMzEuMzA2TDIwMi44MDEgMTMxLjIxOEMyMDIuODIgMTMxLjA0NCAyMDIuODM4IDEzMC44NyAyMDIuODU0IDEzMC42OTZWMTMwLjY4MkMyMDIuODY3IDEzMC41NDQgMjAyLjg4MSAxMzAuNDA1IDIwMi44OTMgMTMwLjI2NkMyMDIuOTY0IDEyOS40NzggMjAzLjAyNCAxMjguNjg2IDIwMy4wNzIgMTI3Ljg5MUMyMDMuMDgxIDEyNy43NjEgMjAzLjA4OCAxMjcuNjMgMjAzLjA5NiAxMjcuNDk5VjEyNy40OTNMMjAzLjEyMiAxMjcuMDAyTDIwMy4xMjggMTI2Ljg5MkMyMDMuMTQ0IDEyNi41NiAyMDMuMTU4IDEyNi4yMjggMjAzLjE2OSAxMjUuODk2VjEyNS44ODRMMjAzLjE3NCAxMjUuNzU0QzIwMy4xNzkgMTI1LjY0NSAyMDMuMTgzIDEyNS41MzUgMjAzLjE4MyAxMjUuNDI1TDIwMy4xODUgMTI1LjM4MUMyMDMuMTg5IDEyNS4yNzggMjAzLjE5MyAxMjUuMTcyIDIwMy4xOTMgMTI1LjA2N0wyMDMuMTk2IDEyNC45NzdDMjAzLjE5OSAxMjQuODcyIDIwMy4yMDIgMTI0Ljc2OCAyMDMuMjAyIDEyNC42NjNMMjAzLjIwNCAxMjQuNTc0QzIwMy4yMDcgMTI0LjQ0MSAyMDMuMjEgMTI0LjMwNyAyMDMuMjEgMTI0LjE3NFYxMjMuNjg1Wk0xMDguNjM4IDE5OS4zOTFDMTE0LjY0IDE5MC41OSAxMTQuMjE0IDE4My45ODQgMTA1Ljk4IDE3NS43NTRDOTcuNzQ0MSAxNjcuNTIzIDkyLjk1MSAxNTUuNDg3IDkyLjk1MSAxNTUuNDg3QzkyLjk1MSAxNTUuNDg3IDkxLjE2MjEgMTQ4LjQ5NiA4Ny4wODIxIDE0OS4xMzhDODMuMDAyMSAxNDkuNzggODAuMDA5MSAxNjAuMjI3IDg4LjU1MjEgMTY2LjYyMkM5Ny4wOTQxIDE3My4wMTcgODYuODUyMSAxNzcuMzUzIDgzLjU2NDEgMTcxLjM1MkM4MC4yNzYxIDE2NS4zNSA3MS4yOTkgMTQ5LjkyMyA2Ni42NDUgMTQ2Ljk3MkM2MS45OTEgMTQ0LjAyMSA1OC43MTggMTQ1LjY3NSA1OS44MTUgMTUxLjc1N0M2MC4zNiAxNTQuNzc2IDY1LjQyODEgMTU5LjkyOSA3MC4xNjMxIDE2NC43NDNDNzQuOTY3MSAxNjkuNjI3IDc5LjQyOCAxNzQuMTYzIDc4LjQ3NCAxNzUuNzY4Qzc2LjU4MSAxNzguOTU1IDY5LjkxNDEgMTcyLjAyMyA2OS45MTQxIDE3Mi4wMjNDNjkuOTE0MSAxNzIuMDIzIDQ5LjAzOCAxNTMuMDI1IDQ0LjQ5NCAxNTcuOTc2QzQwLjMwNCAxNjIuNTM5IDQ2Ljc2NSAxNjYuNDE4IDU2LjcyMTEgMTcyLjM5N0M1Ny41NjcxIDE3Mi45MDUgNTguNDM5MSAxNzMuNDI5IDU5LjMzMjEgMTczLjk2OUM3MC43MjMxIDE4MC44NjUgNzEuNjA5IDE4Mi42ODQgNjkuOTkyIDE4NS4yOTNDNjkuMzk1IDE4Ni4yNTcgNjUuNTgyIDE4My45NjggNjAuODkyIDE4MS4xNTNDNTIuODk3IDE3Ni4zNTIgNDIuMzU1MSAxNzAuMDIzIDQwLjg2NjEgMTc1LjY4OEMzOS41NzgxIDE4MC41OTEgNDcuMzM0IDE4My41OTUgNTQuMzY4IDE4Ni4zMkM2MC4yMjggMTg4LjU5IDY1LjU4ODEgMTkwLjY2NiA2NC43OTkxIDE5My40ODRDNjMuOTgyMSAxOTYuNDA2IDU5LjU1MzEgMTkzLjk2OSA1NC43MTIxIDE5MS4zMDVDNDkuMjc3MSAxODguMzE0IDQzLjMyMjEgMTg1LjAzOCA0MS4zNzMxIDE4OC43MzVDMzcuNjkwMSAxOTUuNzI1IDY2Ljc4MzEgMjAzLjk1NCA2Ny4wMjMxIDIwNC4wMTVDNzYuNDIzMSAyMDYuNDUzIDEwMC4yOTUgMjExLjYxOSAxMDguNjM4IDE5OS4zOTFaTTE0Ny4zMDMgMTk5LjM5MUMxNDEuMzAxIDE5MC41OSAxNDEuNzI3IDE4My45ODQgMTQ5Ljk2MiAxNzUuNzU0QzE1OC4xOTcgMTY3LjUyMyAxNjIuOTkgMTU1LjQ4NyAxNjIuOTkgMTU1LjQ4N0MxNjIuOTkgMTU1LjQ4NyAxNjQuNzc5IDE0OC40OTYgMTY4Ljg1OSAxNDkuMTM4QzE3Mi45MzkgMTQ5Ljc4IDE3NS45MzIgMTYwLjIyNyAxNjcuMzkgMTY2LjYyMkMxNTguODQ3IDE3My4wMTcgMTY5LjA4OSAxNzcuMzUzIDE3Mi4zNzcgMTcxLjM1MkMxNzUuNjY2IDE2NS4zNSAxODQuNjM3IDE0OS45MjMgMTg5LjI5MSAxNDYuOTcyQzE5My45NDUgMTQ0LjAyMSAxOTcuMjIgMTQ1LjY3NSAxOTYuMTIyIDE1MS43NTdDMTk1LjU3OCAxNTQuNzc2IDE5MC41MDkgMTU5LjkyOSAxODUuNzc0IDE2NC43NDRDMTgwLjk3IDE2OS42MjggMTc2LjUwOSAxNzQuMTYzIDE3Ny40NjIgMTc1Ljc2OEMxNzkuMzU1IDE3OC45NTUgMTg2LjAyNyAxNzIuMDE5IDE4Ni4wMjcgMTcyLjAxOUMxODYuMDI3IDE3Mi4wMTkgMjA2LjkwMiAxNTMuMDIyIDIxMS40NDggMTU3Ljk3M0MyMTUuNjM3IDE2Mi41MzUgMjA5LjE3NiAxNjYuNDE1IDE5OS4yMTkgMTcyLjM5NEMxOTguMzQ4IDE3Mi45MTcgMTk3LjQ3OCAxNzMuNDQxIDE5Ni42MDkgMTczLjk2NkMxODUuMjE4IDE4MC44NjIgMTg0LjMzMiAxODIuNjgxIDE4NS45NDggMTg1LjI4OUMxODYuNTQ2IDE4Ni4yNTQgMTkwLjM1OSAxODMuOTY0IDE5NS4wNDggMTgxLjE0OUMyMDMuMDQ0IDE3Ni4zNDkgMjEzLjU4NiAxNzAuMDE5IDIxNS4wNzUgMTc1LjY4NUMyMTYuMzY0IDE4MC41ODggMjA4LjYwNyAxODMuNTkyIDIwMS41NzMgMTg2LjMxN0MxOTUuNzEzIDE4OC41ODcgMTkwLjM1MyAxOTAuNjYzIDE5MS4xNDEgMTkzLjQ4MUMxOTEuOTU3IDE5Ni40MDIgMTk2LjM4NSAxOTMuOTY1IDIwMS4yMjUgMTkxLjMwMUMyMDYuNjYgMTg4LjMxIDIxMi42MTYgMTg1LjAzMiAyMTQuNTY0IDE4OC43MzJDMjE4LjI0OCAxOTUuNzI2IDE4OS4xNSAyMDMuOTQ3IDE4OC45MTUgMjA0LjAwN0MxNzkuNTE1IDIwNi40NTMgMTU1LjY0MyAyMTEuNjE5IDE0Ny4zMDMgMTk5LjM5MVoiIGNsaXAtcnVsZT0iZXZlbm9kZCIgZmlsbC1ydWxlPSJldmVub2RkIi8+JiN4YTs8cGF0aCBmaWxsPSIjMzIzNDNEIiBkPSJNMTUyLjA0NyAxMDIuNTY3QzE1My4yMjkgMTAyLjk4NSAxNTQuMTA4IDEwNC4yNTcgMTU0Ljk0NCAxMDUuNDY4QzE1Ni4wNzQgMTA3LjEwNCAxNTcuMTI2IDEwOC42MjcgMTU4Ljc0IDEwNy43NjlDMTYwLjY0NCAxMDYuNzU2IDE2Mi4yMDUgMTA1LjIwMiAxNjMuMjI1IDEwMy4zMDJDMTY0LjI0NiAxMDEuNDAyIDE2NC42ODEgOTkuMjQyNyAxNjQuNDc1IDk3LjA5NkMxNjQuMzIxIDk1LjQ5MDggMTYzLjgxMyA5My45Mzk4IDE2Mi45ODcgOTIuNTU0OEMxNjIuMTYxIDkxLjE2OTcgMTYxLjAzOCA4OS45ODUgMTU5LjcgODkuMDg2MkMxNTguMzYxIDg4LjE4NzQgMTU2LjgzOSA4Ny41OTY4IDE1NS4yNDUgODcuMzU2OUMxNTMuNjUgODcuMTE3IDE1Mi4wMjIgODcuMjMzOSAxNTAuNDc4IDg3LjY5OUMxNDguOTM0IDg4LjE2MzkgMTQ3LjUxMyA4OC45NjUzIDE0Ni4zMTYgOTAuMDQ1NUMxNDUuMTE5IDkxLjEyNTcgMTQ0LjE3NiA5Mi40NTc4IDE0My41NTYgOTMuOTQ2QzE0Mi45MzYgOTUuNDM0MiAxNDIuNjUzIDk3LjA0MTUgMTQyLjcyOCA5OC42NTJDMTQyLjgwNCAxMDAuMjYzIDE0My4yMzUgMTAxLjgzNiAxNDMuOTkyIDEwMy4yNkMxNDQuNzQgMTA0LjY2NyAxNDYuNCAxMDQuMDAzIDE0OC4xNTIgMTAzLjMwMkMxNDkuNTI1IDEwMi43NTMgMTUwLjk1NiAxMDIuMTgxIDE1Mi4wNDcgMTAyLjU2N1pNMTAwLjY3MiAxMDIuNTY3Qzk5LjQ5IDEwMi45ODUgOTguNjExIDEwNC4yNTggOTcuNzc1IDEwNS40NjhDOTYuNjQ1IDEwNy4xMDUgOTUuNTkyIDEwOC42MjcgOTMuOTc5IDEwNy43NjlDOTEuNTg0NSAxMDYuNTAxIDg5Ljc0ODIgMTA0LjM4NiA4OC44Mjc4IDEwMS44MzhDODcuOTA3NSA5OS4yODk1IDg3Ljk2OTIgOTYuNDg5NiA4OS4wMDA4IDkzLjk4NDFDOTAuMDMyNCA5MS40Nzg2IDkxLjk2MDEgODkuNDQ3MSA5NC40MDggODguMjg1NUM5Ni44NTYgODcuMTIzOSA5OS42NDg4IDg2LjkxNTYgMTAyLjI0MiA4Ny43MDFDMTA0LjMwNyA4OC4zMjI4IDEwNi4xNDEgODkuNTQyNyAxMDcuNTEzIDkxLjIwNjVDMTA4Ljg4NSA5Mi44NzA0IDEwOS43MzIgOTQuOTAzNSAxMDkuOTQ5IDk3LjA0OUMxMTAuMTY1IDk5LjE5NDUgMTA5Ljc0IDEwMS4zNTYgMTA4LjcyOCAxMDMuMjZDMTA3Ljk3OSAxMDQuNjY3IDEwNi4zMTkgMTA0LjAwMyAxMDQuNTY3IDEwMy4zMDNDMTAzLjE5MyAxMDIuNzUzIDEwMS43NjQgMTAyLjE4MSAxMDAuNjcyIDEwMi41NjdaTTE0NC4wOTkgMTQ5LjMxOEMxNTIuMjQyIDE0Mi45MDMgMTU1LjIzMyAxMzIuNDI5IDE1NS4yMzMgMTI1Ljk3N0MxNTUuMjMzIDEyMC44NzcgMTUxLjgwMiAxMjIuNDgyIDE0Ni4zMDkgMTI1LjIwMkwxNDUuOTk5IDEyNS4zNTVDMTQwLjk1NyAxMjcuODUyIDEzNC4yNDUgMTMxLjE3NyAxMjYuODc3IDEzMS4xNzdDMTE5LjUwOCAxMzEuMTc3IDExMi43OTYgMTI3Ljg1MiAxMDcuNzU1IDEyNS4zNTRDMTAyLjA4NCAxMjIuNTQ1IDk4LjUyNyAxMjAuNzgzIDk4LjUyNyAxMjUuOTc4Qzk4LjUyNyAxMzIuNjM0IDEwMS43MDkgMTQzLjU2MyAxMTAuNDQzIDE0OS45MTJDMTExLjU5NiAxNDcuNTczIDExMy4yMTkgMTQ1LjQ5NyAxMTUuMjExIDE0My44MTNDMTE3LjIwMiAxNDIuMTI5IDExOS41MiAxNDAuODc0IDEyMi4wMTggMTQwLjEyNkMxMjIuODkgMTM5Ljg2NiAxMjMuNzg4IDE0MS4zNjcgMTI0LjcwNyAxNDIuOTA0QzEyNS41OTQgMTQ0LjM4NiAxMjYuNTAxIDE0NS45MDIgMTI3LjQyMyAxNDUuOTAyQzEyOC40MDYgMTQ1LjkwMiAxMjkuMzcxIDE0NC40MDggMTMwLjMxNCAxNDIuOTVDMTMxLjI5OSAxNDEuNDI1IDEzMi4yNiAxMzkuOTQgMTMzLjE4OSAxNDAuMjM3QzEzNy44NjQgMTQxLjczOCAxNDEuNzc1IDE0NC45OTMgMTQ0LjA5OSAxNDkuMzE4WiIgY2xpcC1ydWxlPSJldmVub2RkIiBmaWxsLXJ1bGU9ImV2ZW5vZGQiLz4mI3hhOzxwYXRoIGZpbGw9IiNGRjMyM0QiIGQ9Ik0xNDQuMDk3IDE0OS4zMTdDMTM5Ljg1NiAxNTIuNjU5IDEzNC4yMTkgMTU0LjkgMTI2Ljg3OCAxNTQuOUMxMTkuOTgxIDE1NC45IDExNC41ODcgMTUyLjkyMiAxMTAuNDQzIDE0OS45MTFDMTExLjU5NiAxNDcuNTcyIDExMy4yMTkgMTQ1LjQ5NSAxMTUuMjExIDE0My44MTJDMTE3LjIwMiAxNDIuMTI4IDExOS41MiAxNDAuODczIDEyMi4wMTggMTQwLjEyNUMxMjMuNzMgMTM5LjYxNCAxMjUuNTQ1IDE0NS45MDEgMTI3LjQyMyAxNDUuOTAxQzEyOS40MzMgMTQ1LjkwMSAxMzEuMzcgMTM5LjY1NSAxMzMuMTg5IDE0MC4yMzZDMTM3Ljg2MyAxNDEuNzM4IDE0MS43NzMgMTQ0Ljk5MyAxNDQuMDk3IDE0OS4zMTdaIi8+JiN4YTs8cGF0aCBmaWxsPSIjRkZBRDAzIiBkPSJNODEuMiAxMTEuNjRDODAuMjMxMiAxMTIuMjg4IDc5LjExNzMgMTEyLjY4NyA3Ny45NTcyIDExMi44MDFDNzYuNzk3MSAxMTIuOTE2IDc1LjYyNjcgMTEyLjc0MiA3NC41NSAxMTIuMjk1QzczLjY4OTMgMTExLjk0IDcyLjkwNzIgMTExLjQxOCA3Mi4yNDg4IDExMC43NTlDNzEuNTkwMyAxMTAuMTAxIDcxLjA2ODQgMTA5LjMxOSA3MC43MTMgMTA4LjQ1OEM3MC4yNjcgMTA3LjM4MSA3MC4wOTM1IDEwNi4yMTEgNzAuMjA4MiAxMDUuMDUxQzcwLjMyMjggMTAzLjg5MSA3MC43MjE5IDEwMi43NzcgNzEuMzcgMTAxLjgwOEM3Mi4xNDg4IDEwMC42NDIgNzMuMjU1OCA5OS43MzMzIDc0LjU1MTIgOTkuMTk2N0M3NS44NDY2IDk4LjY2MDEgNzcuMjcyIDk4LjUxOTcgNzguNjQ3MSA5OC43OTM1QzgwLjAyMjMgOTkuMDY3MiA4MS4yODUzIDk5Ljc0MjcgODIuMjc2NCAxMDAuNzM0QzgzLjI2NzUgMTAxLjcyNiA4My45NDIyIDEwMi45OSA4NC4yMTUgMTA0LjM2NUM4NC40ODgzIDEwNS43NCA4NC4zNDc3IDEwNy4xNjUgODMuODExMyAxMDguNDZDODMuMjc0OCAxMDkuNzU1IDgyLjM2NTQgMTEwLjg2MSA4MS4yIDExMS42NFpNMTgyLjYxMyAxMTEuNjRDMTgxLjY0NCAxMTIuMjg4IDE4MC41MyAxMTIuNjg3IDE3OS4zNyAxMTIuODAxQzE3OC4yMDkgMTEyLjkxNiAxNzcuMDM5IDExMi43NDIgMTc1Ljk2MiAxMTIuMjk1QzE3NS4xMDEgMTExLjkzOSAxNzQuMzE5IDExMS40MTggMTczLjY2MSAxMTAuNzU5QzE3My4wMDMgMTEwLjEwMSAxNzIuNDgxIDEwOS4zMTkgMTcyLjEyNSAxMDguNDU4QzE3MS42OCAxMDcuMzgxIDE3MS41MDcgMTA2LjIxMSAxNzEuNjIxIDEwNS4wNTFDMTcxLjczNiAxMDMuODkxIDE3Mi4xMzUgMTAyLjc3NyAxNzIuNzgyIDEwMS44MDhDMTczLjM2NCAxMDAuOTM2IDE3NC4xMzMgMTAwLjIwNSAxNzUuMDMyIDk5LjY2NThDMTc1LjkzMSA5OS4xMjY5IDE3Ni45MzggOTguNzk0MiAxNzcuOTgxIDk4LjY5MTdDMTc5LjAyNSA5OC41ODkxIDE4MC4wNzggOTguNzE5MyAxODEuMDY0IDk5LjA3MjhDMTgyLjA1MSA5OS40MjY0IDE4Mi45NDcgOTkuOTk0NCAxODMuNjg4IDEwMC43MzZDMTg0LjY4IDEwMS43MjcgMTg1LjM1NSAxMDIuOTkgMTg1LjYyOCAxMDQuMzY1QzE4NS45MDIgMTA1Ljc0IDE4NS43NjEgMTA3LjE2NSAxODUuMjI0IDEwOC40NkMxODQuNjg3IDEwOS43NTUgMTgzLjc3OSAxMTAuODYxIDE4Mi42MTMgMTExLjY0WiIgY2xpcC1ydWxlPSJldmVub2RkIiBmaWxsLXJ1bGU9ImV2ZW5vZGQiLz4mI3hhOzwvc3ZnPg==;" vertex="1" parent="1">
          <mxGeometry x="960" y="-820" width="107.85" height="100" as="geometry" />
        </mxCell>
        <mxCell id="8JLq0JfyCQMj6DjxHrRQ-16" style="edgeStyle=orthogonalEdgeStyle;rounded=0;orthogonalLoop=1;jettySize=auto;html=1;" edge="1" parent="1" source="8JLq0JfyCQMj6DjxHrRQ-12" target="8JLq0JfyCQMj6DjxHrRQ-36">
          <mxGeometry relative="1" as="geometry">
            <mxPoint x="1050" y="-480" as="targetPoint" />
            <Array as="points">
              <mxPoint x="1060" y="-480" />
              <mxPoint x="1060" y="-480" />
            </Array>
          </mxGeometry>
        </mxCell>
        <mxCell id="8JLq0JfyCQMj6DjxHrRQ-12" value="&lt;div&gt;Fine-tuned&lt;/div&gt;Lora&lt;div&gt;Adaptors&lt;/div&gt;" style="rounded=1;whiteSpace=wrap;html=1;" vertex="1" parent="1">
          <mxGeometry x="870" y="-510" width="120" height="60" as="geometry" />
        </mxCell>
        <mxCell id="8JLq0JfyCQMj6DjxHrRQ-14" value="Fine-tuned&lt;div&gt;Model&lt;/div&gt;" style="ellipse;whiteSpace=wrap;html=1;aspect=fixed;" vertex="1" parent="1">
          <mxGeometry x="1125" y="-520" width="80" height="80" as="geometry" />
        </mxCell>
        <mxCell id="8JLq0JfyCQMj6DjxHrRQ-18" value="&lt;b&gt;&lt;span&gt;table_questions&lt;/span&gt;&lt;/b&gt;&lt;div&gt;&lt;br&gt;&lt;/div&gt;" style="text;html=1;align=left;verticalAlign=middle;whiteSpace=wrap;rounded=0;strokeColor=none;fontStyle=0" vertex="1" parent="1">
          <mxGeometry x="1393" y="-512" width="110" height="26" as="geometry" />
        </mxCell>
        <mxCell id="8JLq0JfyCQMj6DjxHrRQ-19" value="&lt;b&gt;&lt;span&gt;pre_text_table_post_text_questions&lt;/span&gt;&lt;/b&gt;&lt;div&gt;&lt;br&gt;&lt;/div&gt;" style="text;html=1;align=left;verticalAlign=middle;whiteSpace=wrap;rounded=0;strokeColor=none;fontStyle=0" vertex="1" parent="1">
          <mxGeometry x="1393" y="-482" width="320" height="14" as="geometry" />
        </mxCell>
        <mxCell id="8JLq0JfyCQMj6DjxHrRQ-38" style="edgeStyle=orthogonalEdgeStyle;rounded=0;orthogonalLoop=1;jettySize=auto;html=1;entryX=0.5;entryY=0;entryDx=0;entryDy=0;strokeColor=none;" edge="1" parent="1" source="8JLq0JfyCQMj6DjxHrRQ-20" target="8JLq0JfyCQMj6DjxHrRQ-36">
          <mxGeometry relative="1" as="geometry">
            <Array as="points">
              <mxPoint x="1390" y="-525" />
              <mxPoint x="1390" y="-690" />
              <mxPoint x="1165" y="-690" />
            </Array>
          </mxGeometry>
        </mxCell>
        <mxCell id="8JLq0JfyCQMj6DjxHrRQ-20" value="&lt;b&gt;&lt;span&gt;markdown_table_questions&lt;/span&gt;&lt;/b&gt;&lt;div&gt;&lt;br&gt;&lt;/div&gt;" style="text;html=1;align=left;verticalAlign=middle;whiteSpace=wrap;rounded=0;strokeColor=none;fontStyle=0" vertex="1" parent="1">
          <mxGeometry x="1393" y="-463" width="210" height="24" as="geometry" />
        </mxCell>
        <mxCell id="8JLq0JfyCQMj6DjxHrRQ-25" value="train.csv" style="text;html=1;align=center;verticalAlign=middle;whiteSpace=wrap;rounded=0;fontSize=19;fontStyle=1" vertex="1" parent="1">
          <mxGeometry x="280" y="-660" width="60" height="30" as="geometry" />
        </mxCell>
        <mxCell id="8JLq0JfyCQMj6DjxHrRQ-49" style="edgeStyle=orthogonalEdgeStyle;rounded=0;orthogonalLoop=1;jettySize=auto;html=1;entryX=1;entryY=0.5;entryDx=0;entryDy=0;" edge="1" parent="1" source="8JLq0JfyCQMj6DjxHrRQ-30" target="8JLq0JfyCQMj6DjxHrRQ-48">
          <mxGeometry relative="1" as="geometry" />
        </mxCell>
        <mxCell id="8JLq0JfyCQMj6DjxHrRQ-30" value="Evaluator" style="rounded=1;whiteSpace=wrap;html=1;" vertex="1" parent="1">
          <mxGeometry x="880" y="-330" width="120" height="60" as="geometry" />
        </mxCell>
        <mxCell id="8JLq0JfyCQMj6DjxHrRQ-43" style="edgeStyle=orthogonalEdgeStyle;rounded=0;orthogonalLoop=1;jettySize=auto;html=1;entryX=1;entryY=0.5;entryDx=0;entryDy=0;" edge="1" parent="1" source="8JLq0JfyCQMj6DjxHrRQ-32" target="8JLq0JfyCQMj6DjxHrRQ-30">
          <mxGeometry relative="1" as="geometry" />
        </mxCell>
        <mxCell id="8JLq0JfyCQMj6DjxHrRQ-37" value="" style="shape=image;verticalLabelPosition=bottom;labelBackgroundColor=default;verticalAlign=top;aspect=fixed;imageAspect=0;image=data:image/png,iVBORw0KGgoAAAANSUhEUgAAAUAAAAFACAMAAAD6TlWYAAADAFBMVEVHcEwAAAAAAAAAAAAAAAAAAAAAAAAAAAAAAAAAAAAAAAAAAAAAAAAAAAAAAAAAAAAAAAAAAAAAAAAAAAAAAAAAAAAAAAAAAAAAAAAAAAAAAAAAAAAAAAAAAAAAAAAAAAAAAAAAAAAAAAAAAAAAAAAAAAAAAAAAAAAAAAAAAAAAAAAAAAAAAAAAAAAAAAAAAAAAAAAAAAAAAAAAAAAAAAAAAAAAAAAAAAAAAAAAAAAAAAAAAAAAAAAAAAAAAAAAAAAAAAAAAAAAAAAAAAAAAAAAAAAAAAAAAAAAAAAAAAAAAAAAAAAAAAAAAAAAAAAAAAAAAAAAAAAAAAAAAAAAAAAAAAAAAAAAAAAAAAAAAAAAAAAAAAAAAAAAAAAAAAAAAAAAAAAAAAAAAAAAAAAAAAAAAAAAAAAAAAAAAAAAAAAAAAAAAAAAAAAAAAAAAAAAAAAAAAAAAAAAAAAAAAAAAAAAAAAAAAAAAAAAAAAAAAAAAAAAAAAAAAAAAAAAAAAAAAAAAAAAAAAAAAAAAAAAAAAAAAAAAAAAAAAAAAAAAAAAAAAAAAAAAAAAAAAAAAAAAAAAAAAAAAAAAAAAAAAAAAAAAAAAAAAAAAAAAAAAAAAAAAAAAAAAAAAAAAAAAAAAAAAAAAAAAAAAAAAAAAAAAAAAAAAAAAAAAAAAAAAAAAAAAAAAAAAAAAAAAAAAAAAAAAAAAAAAAAAAAAAAAAAAAAAAAAAAAAAAAAAAAAAAAAAAAAAAAAAAAAAAAAAAAAAAAAAAAAAAAAAAAAAAAAAAAAAAAAAAAAAAAAAAAAAAAAAAAAAAAAAAAAAAAAAAAAAAAAAAAAAAAAAAAAAAAAAAAAAAAAAAAAAAAAAAAAAAAAAAAAAAAAAAAAAAAAAAAAAAAAAAAAAAAAAAAAAAAAAAAAAAAAAAAAAAAAAAAAAAAAAAAAAAAAAAAAAAAAAAAAAAAAAAAAAAAAAAAAAAAAAAAAAAAAAAAAAAAAAAAAAAAAAAAAAAAAAAAAAAAAAAAAAAAADR7hC8AAABAHRSTlMACTuDxO379OXPrXUvBCxtqtXv+vzfuX88Cg1S6f7/4p0/BQZCnuD96rFUDAJDtPaZKaAQgOvXWgdk3eZyHafyghGN9fmYFSC3lxajqxqaDxOmoQgLmwN89295eEpFTu7sSBvJItDIho+FOOhGN6XBpPFgafA+ifOUAcPLbGEn4VNbe3feI3Cwar7kMjQ6ObiIfpEzHpN2S2492ofUHCprxxSBwF42QDAX57NxyrVmXb0m49khrkz40nN9HzUuzNNHK5JVTXolVjEZhJAY1rK72KLRqQ6LumIowpWvZ9tov0nNUdxcqKy2Y1hExrzFEk8kV1llX0GOzlB0ny2MipacIiGg8wAAG4xJREFUeAHswTcBACAAACD3tn9dS3gCAQAAAADgj5hyqa31Mdc+91FfT9vNBQEUx28+1Iq168ZJHdtWbdt++9qHFxPM7wX+a+3DqVW1vaOzq7tHIv0vkyuUKornU2tatDq8k/b29Q/Uojo4NDzyD+/0BqPJTOl8FqvNjh/+jo5VP9s23oMf7EYllftNTE6BYdpR5efY6XKDweOl8Dn2+aVgEQiqq1kNhSNgEY3FadsvkQQ7SSpUvWo6IwUrXTZH1345G7hI84VqVYslHTjoWtJUfX7LOnD6F65UpzoT04OTfpaij/HcvAQ8FhYtVakuRcEjuvxepcDKX/DSrlajurYOXhubtOy3tQ0B2z7y1Z1dCNij5ENi2ddDgO6gnXR1MKaDAP0hHQ/x0TEErZ8Qf4ADEHR8SsN+zjOIIC+QrRbPIcKFk4IBVy8hQvSKbPVaAhFurI2/X6ULouzFSVZzzRDF3/i34G0P8//hLsY8oUpcJKudUkbg/iHc89TeHfjXWPZ/AP9MdkYZ7ByxPe4PbThwND3QEGvPRlrNPLaO9XtoIyQSaswhJEigHgjCQ5V4EiADKJXQBClQj0qqpJHyU3mq3y9Y+973fXbO2dZ97vv12vsPcF673Oe6r+s63+vzpVpoOZicuz3VWtzqibkth2rDE1BqOoyg2uDHwl0jM6k2zAVzGzVau+/wANG326iS8ThKzZgkqiQ94QZcY5OoMm48zG2Ckyrt0gEgtSHV7o5DKQm5mWpVowAg6kmqOCbC1Bo/RZVJk3HZlElUaTAZpWRqBFXqV8Jl0/pT5elImNnUbErKMy5c5mnupKT8E6XkGao4/oEr3NMVSlkzYGY1FEqjb8FVM6tRpU8CSkWHilSpmIKrKrWhpNwAE4saSJVZLlzzrJNSTl2UitmxlBxzcI27E1WeDoF5zciilD0XBe6YR5XnUBo806kyfwEKNImn1GYhzOtfTko3RqKAZ6hCaVEqSsHiipSU5/GHqBcoOV6Eabn/TslZBYW8lEUpoh9KwZIcSv1fRiE3KJSaemBWS6tRWlYZhaT9m5LyCkpBV4XS3TEoZHILSsubwazKxVN6NQ2FrXBQujscJRb3KiXbShSWvopSi5dhVo8qFJRnIaxeQ2ltT5RYr/qUxq2D0Fyh4LgVJuVpTyl+LoSY1ygl1kWJrc+l9PdwCA/FUhoKk0p/gdKGZEhVnBSUjSixTZQcrSAtmEfp3zEwp83jKD3shrQlk9JdLpRQ+PWUGmyFFNOQUrWlMKep8b6er4QRlLYloISSt1MqHwWV2yllVYI53eqgkPE6VDxNKfV/AyU0OZTSDqi9aaOQ9BbM6W1Kk3ZCrZWztP+Wd2w+Nxq7sigoVWBO7SktT4XagGz/3iIhuyu9/uLGPdOb1qnT9N3rblv50Na8NOjqSil0MtSW7qX0N5hS9HuU7nZDLWUtpaZQcyVPWzFs3/6sDIUFnBktWt64o9WADh6oeA5QOtgBamk3UnrfDTM61IfSB9AI2UfpwzQUFrfw8F83ZCvUpUT0rvPIkRgUln6U0vXh0OhEaWA6zChlHgXlMWgdK2JJ4T4y8b02ThbJOen4RzvdKNDzY0oP+vE1n98BZnRkGQXbX6BVRaFQayGuavZWl9oK/eCsX6dbKq7aFUrB+Qi0HnFSqN0LZjRgMIWcudDqlqu/mev5n6Ox9FvYiVZ5+v9e2BJofZJLIXQXzOj1DAoNKkOrUhYF5xgAWHBbbwcDYvt0zm4AaKVQaDMKWluyKSQugRm946BQfTMk3TlrI7B4Ym8nA+bctiJBuxOenwytUW0o2O+DGa1Q1FO1P6/qPWmfDbSxWOyr1sf9jdILkdDqeZKC83OY0UZK9x+CVsyrlE6cymGxDX64PKUv3NDqfJCC8ijMqDmlE5HQ8hzgn6o9dEQtorQRZvQBpS9joONd/qmeg46QE5S6woxmUToeDh238081FjpiOlLaAzPqRKmqCzpu4J9qInSEN7TEoX49Su1c0DGRfyZlJHS4X7PEcUwXSn/3QMdXCv9Ezq+hw/0Fpb4woy5+PYGfO+mfxArz7x8+8MSJgeWXV2sTS5/k/ltwX2+JAaxD6X0XdHztoG85B7vMOb06OTU98v+lpyaP6v7KXdvDqM/3HiP8uCW+wu0pXe+Gjjcd9GHw8OZLkl1QcS1tsuebHPqQtB46om+2xEtkB6Wbo4sxgM557y5JhRcJ3Y+1VliUpNnQkfahJZYxQymdSYOOx230zrb83nUoimfnDRUdAQ9g+lFLLKQ3Ufq2MXT8xUZvnCM+WgqfUqr0VuhNUjfoSB1hia3cK5Qq5gc2gK2f3Q2/tN00ml7kfgIdydUscZhwWKEwLwU6ztqoK6xeZfjt5btiqSu3B3Rsrm6J4yz17FZhJ3Q85qCe+bfGIQAhL7akHlsr6HijFgX7WZhRk1gKETOgNWovdSQ9fAQBeqOqjTp69/JetGP2I/0ZERQyukMj5AB1ZD3bGAE71DWCWkrTOGjcZ7fEj0rnJvmeaUbGUuvkZx4Ug/u76tQKOw+N7xUKa8bDjDQlKM/iirjF56bUfevxNxs1OjyPWhXLoZiG9KbW3h8aNXrz8fUXZozvHOflrHx+Msyo8XBKswB33txHh3XcsCYi1m5zOBxOam3bhWJ7eTm1nA6Hw5aUmLnm4Jc7Piq31AXUMX1ph/6Zx9Em97arFs+ibZiMEphRjUUbvH1QldN9KFV1wxKbYVsYfao+BCXSfRJ9CrNR+l+Y00YGLPM7lNDIeAZKmQNzamRjgOxPuFFC0Q8E/qn3wZxeymaATkWhxBKeZICyXoY5LTjJwOw9glJQeS0DszcP5hT5FAOSMRKlolUuA/JlHEzqHgbkyyiUitQzDMh0mNUDDETiWZSSr3MZiK4wqe7VGIinDqGU5H/DQPS+CWYUs6ICA2F/BKXmURsDUfuHcJhO6jNhDMiJfJSa5EUMSPzzUTCZvL/aGJD+p1GKZmcxIPZOi2EqbY8rDMikzz0oRa6vljEgzlO7YSKbv2TRkjLXtJ43b1yFzFz+LrTqVJQuz02vRVz9pNEtDx5sWTvCziIpx3vCNNq+yiJkX+yy8a3J4xekpMzcOfmTic8de3dCvzSUupCpt02/c2iV9ZPX5XXunNdryo/PHrgYQe+U13bDJJa+Rq8y942d2tmDoHB1nvbTjaH0RmnXGaaQ+leF+pT9Q6emI6giBzzX0kl9zqaNYQJxH9ioSzl42x0wgc2v9Faoy35dDILONSeWusa93RYm0fbt6tQVtsKDYJvdgHrCfr4EE9naJZF6lp1GkN0yn3pafp4GU0n7YS31XDyHoDr0BXU4jleG6VT6t5M6BqUjiDw/2amVODQfJrS4byy1cv+FIJpWgVqhVWJgSmkbs6k1ejKCJvVVavX/3AWTcn/VglpfNEawPGanRv/vYF6elS2okXsYQTJqHjWyxsDMPIcjqDH/DgRF+HSFamETXTA19yuxVFOecyEYpjagmm1PNEwu7r8OqlWYjCCIG0SNdqkwvfzj1OgUDuNdiKDaxfGwgCPzqdZiGgwX8zDVQrvBEv6STbV7wmG0qaHatm1uWEJ0X4Uq/XfBYK5hVPsmDxbR9iJVlF88MNbq+lSJPwvLOJ9IlbWbYazbnFQ5EAfLiLyeKo6PYKhDR6nSfwssZEhokFsFXYinpOxww0Ki61Elsx+M9AFV2uyCpUzNoqTUgIE6f0qVTm5YinYZW/4QjFM3jFL2TbCYT8K03WGM01yh1DESFnNoYBDbfUWeoeT4HpYzwUnpvRgY5UgFStXHw3IWav6IdTBKIzulQeGwGm13mNzZMMpzlBw/wIIedQarej/tVUoVjsCCXm5A6e5oGGPmfkr7QmBBUcMpHcyDMYZkUnoOlvQupQZbYIxWdgq2N2FJKx0Ucm+FMX5RKLTYCkvaEhGk7XBVShs6wJJ276f0M4xxlNKrMbCkkDOUOsIY8yndiT9BeOOl56YsaXKh5kuVjmxOjopG6fP8TGk5jFGb0iaUrvSdPeZMv7783kkRibGJOdlZy6pXW/Tkjirdx0eidO2htBbGCKWgrIAv0W2nDKl5qQN886TMfuapNRnUETv6zDNvtXXBJ0/y1ppDZrQNhy9VKE2CMRIpON5B0VLfef9kRFhOg4PDaoajSEt/bLo3g0XIXfvzOykoUvSS9ttb5IRlfnzqzUMQfEYyh8IYdp+xm8JNT+fyqqy+KfAqesaeirn0KWn70C3R8GrmsUxeldFxCIr0o41CDozhpBDbpOiq0DYs5MPV0Bd3+q5a9FODQafjoO+NgSykwkg3hKJ7LWXAGAwgztDTKpvCmZ7QET7kVDYDkN1uiBs67hhOIeIRD7x7KINCEoxBKbYuvLuwjJIyKwYao4ZlMUAtdqyGRlodqlSoCe965AZnABXvwa9q+U9RLaIJVNJX7Gcx7P0qEiqzc6jWMRVenbUH5ytso2B7HF59ZafG+2kQbvl7Losl48BOCOkNqZF7Hl7d6qQQFpxljNIK3kQ9Ra2sySjEdXY+i63iJx4UMjWbWu+lwZt/KcFZxrSg9Da86RdBrcSb8IeQn7Koz5nYYvTHLatV2/9x7RaxCvXVeixGPaep9a8Mb26nNBrG+JjSMZ//xULYXBRo1jeDOsJaHt/z4pJL63rmJSfn9Vy3tcnIZ/49L5E6Eh9sjALdM6jlWAkvPHUoHYQxylO6OQZezKKOnJq4pnM9BzVCn/pn3ZRoqMQs6P78C5nUsM9KxTWnM6jjGXiRto/SjTDGw5S2d/CVqirET8NV+V2cVLFXvL1fY3gRNXVPbxtVbL8ewlVLEqnjYRckr92iO8EYzysUsnZBX0xH6qgwCldEtXdSyjjzQx6KtPuRp3Ip2f4bgisuNaCOhuHQ1y+bgvNZGGNMLgXHGH+bhotSxujr7BRsL3yXCp+a3VreQSHjWTcui3qBgo/M3u+dFBI/gzEGNKC0w9/fvUQx7cgcCifndIZfOmysTiHiTVnvIj0AfZ7fKLWpBGPs3kCpTzPo+yyXGtUW4LJ+o1mY/f1L8NuuJx0sbN5WXNbrY2ok9oC+Dr0pjVgMY0RfTyl7KvQt7kM1x0ZctngfC4t44hACkPBAGAs7norfebo6qfZCKvSdDqM0yA2DbPK7PHZlLFX2LcbvPE84WEiblW4EJHpiFguxz8FleUepkvgdvPiFkrIRRvkkg1KfBOgLaapQaDkDl82YxEJqn0WgPJ/3ZyGtF+KyaScpKL+mQd/S3pTCLsAoM1tTin0LXiy9W2Eh8+risrguLKTNfSiG8w1YyLFwXNZjHAtxtusAL75LorR3N4wSfTdV2sXAi+RZ8Szw7VRcUTeCf4gYg+LwjMzmHxr0wxVLlrNA9t8Ww4uQhlQ54IZhJjophZaDNzH3NazlIEnbvOsW6NXIJ411o1jcY3P17vxufuakjSQdy17rFg1vmgym5BgJ41ReRpUuMfAqbev5f8469vw7d+CaLS1YQDmQjmKKrKewQIVLuKbX17f/uqPrd5Xj4FXa+1SpvRrGiXuSKhHdEYAHFBbYfg56Zpar+1LnKx92y4W6C6OhZ/x8FlC6IgCz46lyKhoGOmyjytPN4LcOFVkg40XoiJmzPz42+/7HFiP8oS/aJMa26TQTer7KZYFFzeC3hDNUsZ+HkWaupYr9XvitRywL3NwYOlol8neOgSunZ/KyJ/Oho9kJFoi/CX67zU6VDbthJM8HClVGv1ScIvXYH6EjZTuvsvEq2w/Q82ISr1E2wV8v1aaKcjuMNaUW1T5MDrTrg1yC+zib/80DHXkbWODVOPgn+UOqVbgU9PuidE5Pg1/O1eY1yvPQ85mNGnd5oMPzNxZoPRN+CZnlpNoxNwxWLotqsbe54Y/uGb62Tzvrk37uVGdn8JqcufBH+NgMqvWfAqNF30ONiB88AbaB9dJcxlXDQZWK66Br8zhe4zwPP7g+Gkya4br4rknUWNY9wO5fT0ZDV/7DCoXWdaGmbf/9KPwwuwU1qi+E8TzNndRYtBu+PeFHu/0Od2awkItL4M2vLDABvvXcRg3HWA+CIGU5NRxzAjtO3AhvQg7vVXhVfKed8Op/WOAn+LbRSY3hyQiKHwdTY1V6QAP4EbxbuI1XZEyI8a9O9wb4dGg4NTI/QXBE71CotuZcQANYBUX4jVesWYcijA3oCXyjFtWcv4QjSGYup1rElIDmwKHwzl2VV9R6w8+Onq/ApyWJVCu/G8Hirke1zMnw6Sf9t7DaoUX+3ISO68gCE+HTkDCqHfMgWGrWouDnbqCVwmta7oZX59b4EwexYB6vcY6BT0faUK3CFARJSFVqNIyD4KO2O6wJvDody6t+hXfdEwPqPZ++ihp1ohEcn8RTzf4ifBtVgdcoD8KrkYr+Nlj6RQksNWKig2pZ0xAUaddT40w+fGs8kAUuJsOb+3J51TB41bMaC9yYBt+SywcxQlW6kE21NXPhj6EskPSI7wL13Hfg1b02Frgd/ji9jGrLdiEI3PdQLWJM4CfSfZbCm3It+bvE6Y3hzbpqLBB2Gv7wfBVPFeUDD4x3yxqq2Gq44ZfF21jAUcMFby49saNTvb5nQ/xbyt+fD7+EP+Cgysl1MN5PTqo8nQA/1VBYoMVsFNv5eBZQ3oafFq+iiqMKpKBkWGYtgb8uVeAfqk1GMfVrzT/UHwV/dc+kyokoGO2meErKr+Hwl3sYC1l0C4rl0jYxj7ngr+jfqJJdE0Z7oEQZlpXWsJBvt6IYdvVhIfXfgP9eqkVJuQ4Ga9aHKu3d8J/reScLOdgdAXtoOwtxbvLAf+E/U+XbVBir3GBKEXMRiJQ+LKzNK4cQkISNy0qSAt49x/j8SmmsQunLSATkk1AWZn+ynAt+i+txo42FZfVAQDT1/MptMFTMe5QcKxAYd1c7hVo7drnhl5ibBmVTsD/hhhTwyf4X0TDSHeMojd6JAB06oFBq89vrCfApYf2pUEpKlygEqFItSmt7QjC6SrpqNALV82mqhS3a0z0lHF65k5fU+DaRal+mIFAhTxtdIS09oVBwPorAnXuBWoktv9j0Zr8jm1OWdljcOaFZs9TU1GYJi5f2HL91yfmu7TbkUGtVLwTuHwoF5V4YyP2+/iXqAO3cR122wcvqz2s5f0Pvi59uG7F8xLaLG/aeXJOV6KCujuNRDEPiKdXxwDidK1Lqk4rimPm+gyVkG9QTxZG8nVL5KBhG++Ngew+KJX9oDksk+/ZUFIv775RG94Jx1Ik1zo9QTNGf72cJbG8UjmL6SaEQNgTGeUyhkDMXxfbGXYkspsGddqLYXs+g4PwBxulLadxMFF/Id984WAz2VffFoPhWT6L0PAwTfpzSwHSURPJjn9oYoKRvDyegJFKXU+rigVEO9Sntz85rtSqeAYi4eUxnlIz7bkpPhcAoKfNK/+mPavLuhlj6JWzbMzUjUWK/UJqfDKOsbkNB+QqlIa/HA6vW5LJIGaNvbN5k8Z/yJlzTC0bZlUkhaTZKSeTObhubPn3x5JpaWRGD43PCLsuJHxyR1X/NyU+/vHPC671CUEr+YqPQ4A0YpVwOhcEDUJri8heMX1hpxoBp5ebe9P/mlps2YEalW8YvSIhDaZqboyksM8qFRAr9j8CC1Ckz8f1gFHVG1bi2sKB1ozWZXkZR38SqlgwLytuviTI1SrckCp8mwILye2uiTI0yO4nCoihY0KH7KWQ0CdoADk+HBTX+lkJG96AN4FFLDmB6eQoZD1l6AI3XWD2Ap4M2gN9Ycw7so05kD9pbeFszWFB+RQqxF4K2DpzfARa0tKU6XThoO5HWbWFBd9TXhOMaRX3hbNkoi+6FhcH9YJSp8RSyX4IFDQkL2mnMy6EUcrvBghrZKNRaCKPsrKA5kbagexUKtXsF7RyDz8OC/lebJx6sXSQPeGA12t9mV4XAKO6qlIY3huXkX6T0Vw8MM5RS/XWwnIX9KdWAcb5XKCQ2geWcTaLg/BzGaRJLQXkFlvNPSvFTYZxzayg97IbFRD/JIO5Ho76hVC0PFjPzJKUzITCMthFCWBNYzPpcStNhpImK5rKexfyXknMkjDRtsPaynqXkj6AUOgNGWtybUvwFWMpDYZRGJMBIrt+o8q4HFuI6RpU7PTDUShuleXfAQs6No2S7FcZavYaSYwIsZKyT0uhzMFbMa1S5uBuW0XY+g3HbVVjhoOT4B6zCU8NJyfEVjLZzNFVGz4BFDJhElerjYRiR2yC8uhiWsPRDqt3jhuHWJ1LFMT0EFtC4k5MqOQ/BeM2OUi23eRpML3KonWr7ohAEH9moFrspBiaX9mAu1ZJWIhjyLlIj8T8emJprQgY1yucjKCbaqFF7F0yt3zJq5K5EcHR+gVrH3DCx8HrUevoQgmR2NgURbGxKM1tTI7M7giV6mEK1ZUdgYpWyqKb0DUfQrOtNtVoLYWKTM6k2oi2CqFEOVRpUttYAZq9HMM0dTJUKq2FilRtQJXQLgsjVV6HKoDiYWOQXVFEe8CB4do6jSuhcmNrpbKqs3Yzg0fbX+TkaphbXjiqOxxA0Cd9QpUE/mNySTKocTUWwdEsshVh/g8XcRZWw1xEkrqZUaTAApjckkyp3uhAcmz+2yAwoxJ2iyryZCI4xdkrZS2ABPXIo2ccgKNx3UaWhNY70b6TKXW4Ew+aTlJK+hiWMtFE6uRnB0CiJUu+lsIQFeyklPY4g8AyjpDwIa/D0pcoOD4yXv41SdjlYRJMcSvc3g/GmZVMaGAWLSLifUuYUGK+KQkGpAcsYSsn5PQznHkQpZwkso0cspU4eGK3DQUoHO8AyUvZrg8SNtiWTUj0XLMPdjtKyhTDaiw7tNGLdy9ZJZ2G0DyhlboGF1Iyn9D8wWMy/KfVeDAvZ3ZLSAReM1WEDpVNuS181/DYq2NeVn4ClPEip+h0w1ulYCvbHYSljHBQGT4OxDjsphE6Gpagv+znegbGaU5qXYu3gLN4AY91Da2cwpt5PaRYMFf0epfddsJTohpSud8NI6cMpvQuLaUrpTFpQ0x/5NizmOgY1xjR5LwXlP7CYCQxqmLi6JYvzPCzmsELhYGcYaUFrCvb7YDHfOYKaAztzHIXcHrCYs3YKe5caP4DGhVgbkIXdMsgD2B0Wsz64A9i2tdW/wj/ag9oTJeVjCvazsJivncYHgMoUcCPD9wyIQOydDyN1PkipCixmLKURqUHthMA9Vs/wNbipTNo+QxNcDcjR7RgDI7lOUToRaelmIsY/AX0ptZ4JS9GEmNaAsSYoFMIuwFK6ZVBwroSx3kqioDwLS2mubXIuGd7n/+Y0WEjkGUqj18FYzZZT6l8JFrIli1L5xjCWqx4lZRMsZI9Cqb0HBvvISanaZlhGr7WUHC/CaP0ynZJtAiyjVU5Gkt3mcBZo8DLKlClTpkyZMmXKlClTpkyZMmXKlClTxof/A1Adz3owGH78AAAAAElFTkSuQmCC;" vertex="1" parent="1">
          <mxGeometry x="1100" y="-550" width="30" height="30" as="geometry" />
        </mxCell>
        <mxCell id="8JLq0JfyCQMj6DjxHrRQ-39" style="edgeStyle=orthogonalEdgeStyle;rounded=0;orthogonalLoop=1;jettySize=auto;html=1;entryX=0.001;entryY=0.517;entryDx=0;entryDy=0;entryPerimeter=0;" edge="1" parent="1" source="8JLq0JfyCQMj6DjxHrRQ-10" target="8JLq0JfyCQMj6DjxHrRQ-36">
          <mxGeometry relative="1" as="geometry">
            <Array as="points">
              <mxPoint x="1010" y="-480" />
            </Array>
          </mxGeometry>
        </mxCell>
        <mxCell id="8JLq0JfyCQMj6DjxHrRQ-40" value="Llama-3.2-1b-Instruct" style="edgeLabel;html=1;align=center;verticalAlign=middle;resizable=0;points=[];" vertex="1" connectable="0" parent="8JLq0JfyCQMj6DjxHrRQ-39">
          <mxGeometry x="-0.1718" y="-1" relative="1" as="geometry">
            <mxPoint as="offset" />
          </mxGeometry>
        </mxCell>
        <mxCell id="8JLq0JfyCQMj6DjxHrRQ-44" value="" style="group" vertex="1" connectable="0" parent="1">
          <mxGeometry x="1400" y="-360" width="130" height="90" as="geometry" />
        </mxCell>
        <mxCell id="8JLq0JfyCQMj6DjxHrRQ-32" value="add(123, add(43, 23))" style="rounded=1;whiteSpace=wrap;html=1;" vertex="1" parent="8JLq0JfyCQMj6DjxHrRQ-44">
          <mxGeometry y="30" width="130" height="60" as="geometry" />
        </mxCell>
        <mxCell id="8JLq0JfyCQMj6DjxHrRQ-33" value="ground truth" style="text;html=1;align=center;verticalAlign=middle;whiteSpace=wrap;rounded=0;fontSize=19;fontStyle=1" vertex="1" parent="8JLq0JfyCQMj6DjxHrRQ-44">
          <mxGeometry x="5" width="120" height="30" as="geometry" />
        </mxCell>
        <mxCell id="8JLq0JfyCQMj6DjxHrRQ-48" value="Metrics" style="rounded=1;whiteSpace=wrap;html=1;" vertex="1" parent="1">
          <mxGeometry x="680" y="-330" width="120" height="60" as="geometry" />
        </mxCell>
      </root>
    </mxGraphModel>
  </diagram>
</mxfile>
